<svg xmlns="http://www.w3.org/2000/svg" xmlns:xlink="http://www.w3.org/1999/xlink" width="500" fill ="none" stroke="black"  zoomAndPan="magnify" viewBox="0 0 375 374.999991" height="500" preserveAspectRatio="xMidYMid meet" version="1.0"><defs><clipPath id="edef35009f"><path d="M 196 127 L 262.5 127 L 262.5 212 L 196 212 Z M 196 127 " clip-rule="nonzero"/></clipPath><clipPath id="2c087392fe"><path d="M 112.5 114.28125 L 222 114.28125 L 222 260.53125 L 112.5 260.53125 Z M 112.5 114.28125 " clip-rule="nonzero"/></clipPath></defs><g clip-path="url(#edef35009f)"><path fill="#212121" d="M 250.367188 135.011719 L 239.683594 149.574219 L 219.171875 177.542969 L 206.210938 195.210938 L 205.367188 200.777344 L 210.769531 198.636719 C 214.785156 193.164062 231.136719 170.882812 243.125 154.539062 C 248.832031 146.757812 253.046875 141.019531 255.03125 138.316406 C 254.585938 137.9375 253.9375 137.414062 253.195312 136.835938 C 252.226562 136.078125 251.203125 135.394531 250.367188 135.011719 Z M 234.203125 145.5625 L 246.132812 129.296875 L 247.003906 128.109375 L 248.460938 127.925781 C 248.71875 127.894531 248.972656 127.878906 249.226562 127.878906 C 251.710938 127.878906 254.867188 129.535156 257.375 131.496094 C 259.992188 133.539062 262.144531 136.246094 262.382812 138.0625 L 262.386719 138.0625 C 262.417969 138.3125 262.433594 138.488281 262.433594 138.597656 L 262.433594 139.679688 L 261.765625 140.589844 C 259.652344 143.492188 254.476562 150.550781 248.609375 158.550781 C 235.925781 175.839844 218.363281 199.773438 215.679688 203.429688 L 215.109375 204.207031 L 214.191406 204.570312 L 202.371094 209.253906 L 196.871094 211.433594 L 197.753906 205.601562 L 199.601562 193.382812 L 199.726562 192.5625 L 200.226562 191.882812 C 201.8125 189.71875 207.164062 182.425781 213.6875 173.53125 Z M 255.65625 138.9375 C 255.660156 138.957031 255.65625 138.953125 255.652344 138.914062 L 255.761719 139.757812 L 255.65625 138.9375 " fill-opacity="1" fill-rule="nonzero"/></g><g clip-path="url(#2c087392fe)"><path fill="#212121" d="M 120.230469 114.265625 L 213.890625 114.265625 C 216.003906 114.265625 217.917969 115.125 219.308594 116.507812 C 220.691406 117.894531 221.554688 119.808594 221.554688 121.917969 L 221.554688 157.0625 L 214.742188 166.347656 L 214.742188 121.917969 C 214.742188 121.6875 214.644531 121.476562 214.488281 121.320312 C 214.335938 121.164062 214.121094 121.066406 213.890625 121.066406 L 120.230469 121.066406 C 119.996094 121.066406 119.785156 121.164062 119.628906 121.320312 C 119.472656 121.476562 119.375 121.6875 119.375 121.917969 L 119.375 252.875 C 119.375 253.109375 119.472656 253.320312 119.628906 253.476562 C 119.785156 253.632812 119.996094 253.726562 120.230469 253.726562 L 196.28125 253.726562 L 214.742188 235.34375 L 214.742188 208.21875 C 216.1875 207.371094 217.097656 206.816406 217.109375 206.808594 L 218.066406 205.917969 L 221.554688 201.160156 L 221.554688 238.140625 L 220.542969 239.144531 L 200.074219 259.535156 L 197.675781 260.53125 L 120.230469 260.53125 C 118.117188 260.53125 116.199219 259.671875 114.8125 258.285156 C 113.425781 256.902344 112.566406 254.984375 112.566406 252.875 L 112.566406 121.917969 C 112.566406 119.808594 113.425781 117.894531 114.8125 116.507812 C 116.199219 115.125 118.117188 114.265625 120.230469 114.265625 " fill-opacity="1" fill-rule="nonzero"/></g><path fill="#212121" d="M 129.59375 151.679688 L 201.121094 151.679688 L 201.121094 158.484375 L 129.59375 158.484375 L 129.59375 151.679688 " fill-opacity="1" fill-rule="nonzero"/><path fill="#212121" d="M 129.59375 172.089844 L 201.121094 172.089844 L 201.121094 178.894531 L 129.59375 178.894531 L 129.59375 172.089844 " fill-opacity="1" fill-rule="nonzero"/><path fill="#212121" d="M 129.59375 192.5 L 187.496094 192.5 L 187.496094 199.304688 L 129.59375 199.304688 L 129.59375 192.5 " fill-opacity="1" fill-rule="nonzero"/><path fill="#212121" d="M 129.59375 212.910156 L 187.496094 212.910156 L 187.496094 219.710938 L 129.59375 219.710938 L 129.59375 212.910156 " fill-opacity="1" fill-rule="nonzero"/></svg>