<svg xmlns="http://www.w3.org/2000/svg" xmlns:xlink="http://www.w3.org/1999/xlink" width="500" zoomAndPan="magnify" viewBox="0 0 375 374.999991" height="500" preserveAspectRatio="xMidYMid meet" version="1.0"><defs><clipPath id="19abf8f8c6"><path d="M 112.5 184.246094 L 260.535156 184.246094 L 260.535156 248.191406 L 112.5 248.191406 Z M 112.5 184.246094 " clip-rule="nonzero"/></clipPath><clipPath id="32a5f23520"><path d="M 114.34375 156.296875 L 262.5 156.296875 L 262.5 220.179688 L 114.34375 220.179688 Z M 114.34375 156.296875 " clip-rule="nonzero"/></clipPath><clipPath id="06e0b24953"><path d="M 114.34375 126.8125 L 262.5 126.8125 L 262.5 190.695312 L 114.34375 190.695312 Z M 114.34375 126.8125 " clip-rule="nonzero"/></clipPath><clipPath id="a71ee38f1a"><path d="M 181 126.75 L 213 126.75 L 213 133 L 181 133 Z M 181 126.75 " clip-rule="nonzero"/></clipPath><clipPath id="22d2666163"><path d="M 114 126.75 L 213 126.75 L 213 149 L 114 149 Z M 114 126.75 " clip-rule="nonzero"/></clipPath></defs><rect x="-37.5" width="450" fill="#ffffff" y="-37.499999" height="449.999989" fill-opacity="1"/><rect x="-37.5" width="450" fill="#ffffff" y="-37.499999" height="449.999989" fill-opacity="1"/><rect x="-37.5" width="450" fill="#ffffff" y="-37.499999" height="449.999989" fill-opacity="1"/><g clip-path="url(#19abf8f8c6)"><path fill="#5d85bd" d="M 112.933594 204.070312 L 179.117188 184.527344 L 255.070312 198.398438 C 255.070312 198.398438 265.15625 209.742188 257.703125 224.082031 C 240.371094 230.699219 196.136719 248.191406 196.136719 248.191406 L 112.933594 232.117188 C 112.933594 232.117188 111.042969 230.226562 115.140625 229.28125 C 115.140625 223.765625 115.140625 206.589844 115.140625 206.589844 C 115.140625 206.589844 112.304688 205.960938 112.933594 204.070312 " fill-opacity="1" fill-rule="nonzero"/></g><path fill="#3f5983" d="M 199.148438 244.515625 C 206.875 230.953125 198.804688 219.398438 198.804688 219.398438 C 198.804688 219.398438 211.429688 214.996094 217.851562 212.566406 L 219.164062 212.3125 C 226.019531 225.730469 220.824219 236.015625 220.824219 236.015625 L 199.148438 244.515625 " fill-opacity="1" fill-rule="nonzero"/><path fill="#f2f2f2" d="M 114.59375 206.589844 L 114.59375 229.28125 L 195.484375 244.410156 C 195.484375 244.410156 203.730469 235.269531 195.484375 219.824219 C 161.226562 213.207031 114.59375 206.589844 114.59375 206.589844 " fill-opacity="1" fill-rule="nonzero"/><path fill="#dad9d7" d="M 195.484375 244.410156 L 114.59375 229.28125 L 114.59375 206.589844 C 114.59375 206.589844 138.101562 209.925781 163.992188 214.230469 C 172.664062 217.644531 178.867188 220.097656 178.867188 220.097656 L 187.78125 218.375 C 190.398438 218.855469 192.976562 219.34375 195.484375 219.824219 C 198.234375 224.976562 199.148438 229.425781 199.148438 233.066406 C 199.148438 240.347656 195.484375 244.410156 195.484375 244.410156 " fill-opacity="1" fill-rule="nonzero"/><g clip-path="url(#32a5f23520)"><path fill="#ecb348" d="M 262.066406 177.003906 L 195.882812 156.433594 L 119.929688 170.304688 C 119.929688 170.304688 109.847656 181.648438 117.300781 195.988281 C 134.632812 202.605469 178.867188 220.097656 178.867188 220.097656 L 262.066406 204.023438 C 262.066406 204.023438 263.957031 202.132812 259.859375 201.1875 C 259.859375 195.671875 259.859375 179.242188 259.859375 179.242188 C 259.859375 179.242188 262.699219 178.894531 262.066406 177.003906 " fill-opacity="1" fill-rule="nonzero"/></g><path fill="#f2f2f2" d="M 260.203125 201.1875 L 178.605469 217.425781 L 119.636719 194.375 C 119.636719 194.375 114.160156 184.222656 121.464844 173.039062 C 133.101562 177.601562 179.632812 192.894531 179.632812 192.894531 L 260.203125 179.179688 L 260.203125 201.1875 " fill-opacity="1" fill-rule="nonzero"/><path fill="#dad9d7" d="M 178.605469 217.425781 L 119.636719 194.375 C 119.636719 194.375 117.664062 190.71875 117.667969 185.378906 C 117.667969 182.445312 118.261719 179.007812 120.105469 175.386719 L 137.359375 178.722656 C 155.238281 184.878906 179.632812 192.894531 179.632812 192.894531 L 178.605469 217.425781 " fill-opacity="1" fill-rule="nonzero"/><g clip-path="url(#06e0b24953)"><path fill="#47ad96" d="M 114.988281 146.351562 L 181.171875 126.8125 L 257.125 140.679688 C 257.125 140.679688 267.210938 152.023438 259.757812 166.363281 C 242.421875 172.980469 198.191406 190.472656 198.191406 190.472656 L 114.988281 174.398438 C 114.988281 174.398438 113.097656 172.507812 117.195312 171.5625 C 117.195312 166.046875 117.195312 148.871094 117.195312 148.871094 C 117.195312 148.871094 114.359375 148.242188 114.988281 146.351562 " fill-opacity="1" fill-rule="nonzero"/></g><g clip-path="url(#a71ee38f1a)"><path fill="#ffffff" d="M 213 132.621094 L 181.171875 126.8125 L 213 132.621094 " fill-opacity="1" fill-rule="nonzero"/></g><g clip-path="url(#22d2666163)"><path fill="#62bfa9" d="M 117.195312 148.871094 C 117.195312 148.871094 114.894531 148.359375 114.898438 146.878906 C 114.898438 146.714844 114.925781 146.539062 114.988281 146.351562 L 181.171875 126.8125 L 213 132.621094 L 117.195312 148.871094 " fill-opacity="1" fill-rule="nonzero"/></g><path fill="#f2f2f2" d="M 116.648438 148.871094 L 116.648438 171.5625 L 197.535156 186.691406 C 197.535156 186.691406 205.785156 177.550781 197.535156 162.109375 C 163.277344 155.488281 116.648438 148.871094 116.648438 148.871094 " fill-opacity="1" fill-rule="nonzero"/><path fill="#9edbc8" d="M 201.203125 186.691406 C 208.929688 173.125 200.859375 161.574219 200.859375 161.574219 C 200.859375 161.574219 215.464844 156.433594 221.679688 154.722656 C 228.699219 168.242188 222.878906 178.496094 222.878906 178.496094 L 201.203125 186.691406 " fill-opacity="1" fill-rule="nonzero"/></svg>