<svg xmlns="http://www.w3.org/2000/svg" xmlns:xlink="http://www.w3.org/1999/xlink" width="500" zoomAndPan="magnify" viewBox="0 0 375 374.999991" height="500" preserveAspectRatio="xMidYMid meet" version="1.0"><defs><clipPath id="e2fda4bc91"><path d="M 72 69 L 214 69 L 214 134 L 72 134 Z M 72 69 " clip-rule="nonzero"/></clipPath><clipPath id="73b2f95610"><path d="M 60.527344 83.707031 L 206.21875 48.011719 L 224.066406 120.855469 L 78.378906 156.550781 Z M 60.527344 83.707031 " clip-rule="nonzero"/></clipPath><clipPath id="28b6abfd12"><path d="M 60.527344 83.707031 L 206.21875 48.011719 L 224.066406 120.855469 L 78.378906 156.550781 Z M 60.527344 83.707031 " clip-rule="nonzero"/></clipPath><clipPath id="932a16fabe"><path d="M 60.527344 83.707031 L 206.21875 48.011719 L 224.066406 120.855469 L 78.378906 156.550781 Z M 60.527344 83.707031 " clip-rule="nonzero"/></clipPath><clipPath id="a6900d4da9"><path d="M 60.886719 86.246094 L 207.074219 50.429688 L 222.257812 112.390625 L 76.070312 148.207031 Z M 60.886719 86.246094 " clip-rule="nonzero"/></clipPath><clipPath id="085e82f5ce"><path d="M 60.886719 86.246094 L 207.074219 50.429688 L 222.257812 112.390625 L 76.070312 148.207031 Z M 60.886719 86.246094 " clip-rule="nonzero"/></clipPath><clipPath id="867689d371"><path d="M 60.886719 86.246094 L 207.074219 50.429688 L 222.257812 112.390625 L 76.070312 148.207031 Z M 60.886719 86.246094 " clip-rule="nonzero"/></clipPath><clipPath id="82492d4623"><path d="M 72.925781 133.972656 C 72.941406 131.445312 128.535156 69.707031 128.535156 69.707031 L 213.828125 79.140625 L 154.625 128.832031 Z M 72.925781 133.972656 " clip-rule="nonzero"/></clipPath><clipPath id="f142e5cd0f"><path d="M 60.886719 86.246094 L 207.074219 50.429688 L 222.257812 112.390625 L 76.070312 148.207031 Z M 60.886719 86.246094 " clip-rule="nonzero"/></clipPath><clipPath id="bfbc02d05b"><path d="M 72.925781 133.972656 C 72.941406 131.445312 128.535156 69.707031 128.535156 69.707031 L 213.828125 79.140625 L 154.625 128.832031 L 72.925781 133.972656 " clip-rule="nonzero"/></clipPath><clipPath id="abe6290f3f"><path d="M 107 95 L 195 95 L 195 148 L 107 148 Z M 107 95 " clip-rule="nonzero"/></clipPath><clipPath id="5050fe17d3"><path d="M 60.527344 83.707031 L 206.21875 48.011719 L 224.066406 120.855469 L 78.378906 156.550781 Z M 60.527344 83.707031 " clip-rule="nonzero"/></clipPath><clipPath id="7199ca99a4"><path d="M 60.527344 83.707031 L 206.21875 48.011719 L 224.066406 120.855469 L 78.378906 156.550781 Z M 60.527344 83.707031 " clip-rule="nonzero"/></clipPath><clipPath id="9a490c707f"><path d="M 60.527344 83.707031 L 206.21875 48.011719 L 224.066406 120.855469 L 78.378906 156.550781 Z M 60.527344 83.707031 " clip-rule="nonzero"/></clipPath><clipPath id="960db597dc"><path d="M 127 67 L 214 67 L 214 80 L 127 80 Z M 127 67 " clip-rule="nonzero"/></clipPath><clipPath id="06e2bc2865"><path d="M 60.527344 83.707031 L 206.21875 48.011719 L 224.066406 120.855469 L 78.378906 156.550781 Z M 60.527344 83.707031 " clip-rule="nonzero"/></clipPath><clipPath id="6ee3c60c3f"><path d="M 60.527344 83.707031 L 206.21875 48.011719 L 224.066406 120.855469 L 78.378906 156.550781 Z M 60.527344 83.707031 " clip-rule="nonzero"/></clipPath><clipPath id="c58968a318"><path d="M 60.527344 83.707031 L 206.21875 48.011719 L 224.066406 120.855469 L 78.378906 156.550781 Z M 60.527344 83.707031 " clip-rule="nonzero"/></clipPath><clipPath id="3e85228f7c"><path d="M 72 67 L 129 67 L 129 134 L 72 134 Z M 72 67 " clip-rule="nonzero"/></clipPath><clipPath id="5ba61eb327"><path d="M 60.527344 83.707031 L 206.21875 48.011719 L 224.066406 120.855469 L 78.378906 156.550781 Z M 60.527344 83.707031 " clip-rule="nonzero"/></clipPath><clipPath id="d93647b8dc"><path d="M 60.527344 83.707031 L 206.21875 48.011719 L 224.066406 120.855469 L 78.378906 156.550781 Z M 60.527344 83.707031 " clip-rule="nonzero"/></clipPath><clipPath id="567dba2d99"><path d="M 60.527344 83.707031 L 206.21875 48.011719 L 224.066406 120.855469 L 78.378906 156.550781 Z M 60.527344 83.707031 " clip-rule="nonzero"/></clipPath><clipPath id="e212cc823d"><path d="M 113 70 L 125 70 L 125 116 L 113 116 Z M 113 70 " clip-rule="nonzero"/></clipPath><clipPath id="781114b34f"><path d="M 60.527344 83.707031 L 206.21875 48.011719 L 224.066406 120.855469 L 78.378906 156.550781 Z M 60.527344 83.707031 " clip-rule="nonzero"/></clipPath><clipPath id="436d8e4111"><path d="M 60.527344 83.707031 L 206.21875 48.011719 L 224.066406 120.855469 L 78.378906 156.550781 Z M 60.527344 83.707031 " clip-rule="nonzero"/></clipPath><clipPath id="09d42d2082"><path d="M 60.527344 83.707031 L 206.21875 48.011719 L 224.066406 120.855469 L 78.378906 156.550781 Z M 60.527344 83.707031 " clip-rule="nonzero"/></clipPath><clipPath id="c3d545f7d3"><path d="M 111 114 L 115 114 L 115 132 L 111 132 Z M 111 114 " clip-rule="nonzero"/></clipPath><clipPath id="b28ed0ba7a"><path d="M 60.527344 83.707031 L 206.21875 48.011719 L 224.066406 120.855469 L 78.378906 156.550781 Z M 60.527344 83.707031 " clip-rule="nonzero"/></clipPath><clipPath id="c89f9c4ba2"><path d="M 60.527344 83.707031 L 206.21875 48.011719 L 224.066406 120.855469 L 78.378906 156.550781 Z M 60.527344 83.707031 " clip-rule="nonzero"/></clipPath><clipPath id="f343eceeeb"><path d="M 60.527344 83.707031 L 206.21875 48.011719 L 224.066406 120.855469 L 78.378906 156.550781 Z M 60.527344 83.707031 " clip-rule="nonzero"/></clipPath><clipPath id="181433a942"><path d="M 114 114 L 121 114 L 121 132 L 114 132 Z M 114 114 " clip-rule="nonzero"/></clipPath><clipPath id="df9fc8320b"><path d="M 60.527344 83.707031 L 206.21875 48.011719 L 224.066406 120.855469 L 78.378906 156.550781 Z M 60.527344 83.707031 " clip-rule="nonzero"/></clipPath><clipPath id="d074185be9"><path d="M 60.527344 83.707031 L 206.21875 48.011719 L 224.066406 120.855469 L 78.378906 156.550781 Z M 60.527344 83.707031 " clip-rule="nonzero"/></clipPath><clipPath id="bd4725d8e2"><path d="M 60.527344 83.707031 L 206.21875 48.011719 L 224.066406 120.855469 L 78.378906 156.550781 Z M 60.527344 83.707031 " clip-rule="nonzero"/></clipPath><clipPath id="7af2aa0fdb"><path d="M 112 114 L 115 114 L 115 133 L 112 133 Z M 112 114 " clip-rule="nonzero"/></clipPath><clipPath id="b1c2046e40"><path d="M 60.527344 83.707031 L 206.21875 48.011719 L 224.066406 120.855469 L 78.378906 156.550781 Z M 60.527344 83.707031 " clip-rule="nonzero"/></clipPath><clipPath id="d3603ea568"><path d="M 60.527344 83.707031 L 206.21875 48.011719 L 224.066406 120.855469 L 78.378906 156.550781 Z M 60.527344 83.707031 " clip-rule="nonzero"/></clipPath><clipPath id="972d08b101"><path d="M 60.527344 83.707031 L 206.21875 48.011719 L 224.066406 120.855469 L 78.378906 156.550781 Z M 60.527344 83.707031 " clip-rule="nonzero"/></clipPath><clipPath id="8c2505dfd7"><path d="M 113 114 L 116 114 L 116 133 L 113 133 Z M 113 114 " clip-rule="nonzero"/></clipPath><clipPath id="c07f77e2c9"><path d="M 60.527344 83.707031 L 206.21875 48.011719 L 224.066406 120.855469 L 78.378906 156.550781 Z M 60.527344 83.707031 " clip-rule="nonzero"/></clipPath><clipPath id="7cbf627b05"><path d="M 60.527344 83.707031 L 206.21875 48.011719 L 224.066406 120.855469 L 78.378906 156.550781 Z M 60.527344 83.707031 " clip-rule="nonzero"/></clipPath><clipPath id="6c7596efea"><path d="M 60.527344 83.707031 L 206.21875 48.011719 L 224.066406 120.855469 L 78.378906 156.550781 Z M 60.527344 83.707031 " clip-rule="nonzero"/></clipPath><clipPath id="4504be9a3a"><path d="M 113 114 L 118 114 L 118 133 L 113 133 Z M 113 114 " clip-rule="nonzero"/></clipPath><clipPath id="6b99c94e8e"><path d="M 60.527344 83.707031 L 206.21875 48.011719 L 224.066406 120.855469 L 78.378906 156.550781 Z M 60.527344 83.707031 " clip-rule="nonzero"/></clipPath><clipPath id="1a66a4695a"><path d="M 60.527344 83.707031 L 206.21875 48.011719 L 224.066406 120.855469 L 78.378906 156.550781 Z M 60.527344 83.707031 " clip-rule="nonzero"/></clipPath><clipPath id="49fcb729fd"><path d="M 60.527344 83.707031 L 206.21875 48.011719 L 224.066406 120.855469 L 78.378906 156.550781 Z M 60.527344 83.707031 " clip-rule="nonzero"/></clipPath><clipPath id="8ebdfa89aa"><path d="M 113 114 L 120 114 L 120 132 L 113 132 Z M 113 114 " clip-rule="nonzero"/></clipPath><clipPath id="a28439744d"><path d="M 60.527344 83.707031 L 206.21875 48.011719 L 224.066406 120.855469 L 78.378906 156.550781 Z M 60.527344 83.707031 " clip-rule="nonzero"/></clipPath><clipPath id="e8e8ca952c"><path d="M 60.527344 83.707031 L 206.21875 48.011719 L 224.066406 120.855469 L 78.378906 156.550781 Z M 60.527344 83.707031 " clip-rule="nonzero"/></clipPath><clipPath id="d6bbc415d5"><path d="M 60.527344 83.707031 L 206.21875 48.011719 L 224.066406 120.855469 L 78.378906 156.550781 Z M 60.527344 83.707031 " clip-rule="nonzero"/></clipPath><clipPath id="2b268c0b5d"><path d="M 112 114 L 116 114 L 116 116 L 112 116 Z M 112 114 " clip-rule="nonzero"/></clipPath><clipPath id="add72b28a1"><path d="M 60.527344 83.707031 L 206.21875 48.011719 L 224.066406 120.855469 L 78.378906 156.550781 Z M 60.527344 83.707031 " clip-rule="nonzero"/></clipPath><clipPath id="4e1df63d9c"><path d="M 60.527344 83.707031 L 206.21875 48.011719 L 224.066406 120.855469 L 78.378906 156.550781 Z M 60.527344 83.707031 " clip-rule="nonzero"/></clipPath><clipPath id="34c9e327b8"><path d="M 60.527344 83.707031 L 206.21875 48.011719 L 224.066406 120.855469 L 78.378906 156.550781 Z M 60.527344 83.707031 " clip-rule="nonzero"/></clipPath><clipPath id="23020d0232"><path d="M 111 114 L 115 114 L 115 132 L 111 132 Z M 111 114 " clip-rule="nonzero"/></clipPath><clipPath id="11221e096f"><path d="M 60.527344 83.707031 L 206.21875 48.011719 L 224.066406 120.855469 L 78.378906 156.550781 Z M 60.527344 83.707031 " clip-rule="nonzero"/></clipPath><clipPath id="5a9d2b4a05"><path d="M 60.527344 83.707031 L 206.21875 48.011719 L 224.066406 120.855469 L 78.378906 156.550781 Z M 60.527344 83.707031 " clip-rule="nonzero"/></clipPath><clipPath id="2b6c3df3e6"><path d="M 60.527344 83.707031 L 206.21875 48.011719 L 224.066406 120.855469 L 78.378906 156.550781 Z M 60.527344 83.707031 " clip-rule="nonzero"/></clipPath><clipPath id="a5125980a2"><path d="M 114 114 L 121 114 L 121 131 L 114 131 Z M 114 114 " clip-rule="nonzero"/></clipPath><clipPath id="7f4c6ec107"><path d="M 60.527344 83.707031 L 206.21875 48.011719 L 224.066406 120.855469 L 78.378906 156.550781 Z M 60.527344 83.707031 " clip-rule="nonzero"/></clipPath><clipPath id="16e781eb2a"><path d="M 60.527344 83.707031 L 206.21875 48.011719 L 224.066406 120.855469 L 78.378906 156.550781 Z M 60.527344 83.707031 " clip-rule="nonzero"/></clipPath><clipPath id="35f9d48379"><path d="M 60.527344 83.707031 L 206.21875 48.011719 L 224.066406 120.855469 L 78.378906 156.550781 Z M 60.527344 83.707031 " clip-rule="nonzero"/></clipPath><clipPath id="067b45cb7d"><path d="M 112 114 L 115 114 L 115 133 L 112 133 Z M 112 114 " clip-rule="nonzero"/></clipPath><clipPath id="33a1539f56"><path d="M 60.527344 83.707031 L 206.21875 48.011719 L 224.066406 120.855469 L 78.378906 156.550781 Z M 60.527344 83.707031 " clip-rule="nonzero"/></clipPath><clipPath id="2945214db5"><path d="M 60.527344 83.707031 L 206.21875 48.011719 L 224.066406 120.855469 L 78.378906 156.550781 Z M 60.527344 83.707031 " clip-rule="nonzero"/></clipPath><clipPath id="c6801de075"><path d="M 60.527344 83.707031 L 206.21875 48.011719 L 224.066406 120.855469 L 78.378906 156.550781 Z M 60.527344 83.707031 " clip-rule="nonzero"/></clipPath><clipPath id="3ef79abb4f"><path d="M 113 114 L 116 114 L 116 133 L 113 133 Z M 113 114 " clip-rule="nonzero"/></clipPath><clipPath id="cdbf7f10c3"><path d="M 60.527344 83.707031 L 206.21875 48.011719 L 224.066406 120.855469 L 78.378906 156.550781 Z M 60.527344 83.707031 " clip-rule="nonzero"/></clipPath><clipPath id="23d37deb3a"><path d="M 60.527344 83.707031 L 206.21875 48.011719 L 224.066406 120.855469 L 78.378906 156.550781 Z M 60.527344 83.707031 " clip-rule="nonzero"/></clipPath><clipPath id="82709b036f"><path d="M 60.527344 83.707031 L 206.21875 48.011719 L 224.066406 120.855469 L 78.378906 156.550781 Z M 60.527344 83.707031 " clip-rule="nonzero"/></clipPath><clipPath id="d905c2db5d"><path d="M 113 114 L 118 114 L 118 133 L 113 133 Z M 113 114 " clip-rule="nonzero"/></clipPath><clipPath id="74783733e4"><path d="M 60.527344 83.707031 L 206.21875 48.011719 L 224.066406 120.855469 L 78.378906 156.550781 Z M 60.527344 83.707031 " clip-rule="nonzero"/></clipPath><clipPath id="eb736a00a4"><path d="M 60.527344 83.707031 L 206.21875 48.011719 L 224.066406 120.855469 L 78.378906 156.550781 Z M 60.527344 83.707031 " clip-rule="nonzero"/></clipPath><clipPath id="e4d8db0aed"><path d="M 60.527344 83.707031 L 206.21875 48.011719 L 224.066406 120.855469 L 78.378906 156.550781 Z M 60.527344 83.707031 " clip-rule="nonzero"/></clipPath><clipPath id="32ea44e20c"><path d="M 113 114 L 120 114 L 120 132 L 113 132 Z M 113 114 " clip-rule="nonzero"/></clipPath><clipPath id="75bde43bdf"><path d="M 60.527344 83.707031 L 206.21875 48.011719 L 224.066406 120.855469 L 78.378906 156.550781 Z M 60.527344 83.707031 " clip-rule="nonzero"/></clipPath><clipPath id="0c71597aad"><path d="M 60.527344 83.707031 L 206.21875 48.011719 L 224.066406 120.855469 L 78.378906 156.550781 Z M 60.527344 83.707031 " clip-rule="nonzero"/></clipPath><clipPath id="1994233e6a"><path d="M 60.527344 83.707031 L 206.21875 48.011719 L 224.066406 120.855469 L 78.378906 156.550781 Z M 60.527344 83.707031 " clip-rule="nonzero"/></clipPath><clipPath id="672b6ba997"><path d="M 112 114 L 116 114 L 116 116 L 112 116 Z M 112 114 " clip-rule="nonzero"/></clipPath><clipPath id="b6d2a783c9"><path d="M 60.527344 83.707031 L 206.21875 48.011719 L 224.066406 120.855469 L 78.378906 156.550781 Z M 60.527344 83.707031 " clip-rule="nonzero"/></clipPath><clipPath id="96f11a3350"><path d="M 60.527344 83.707031 L 206.21875 48.011719 L 224.066406 120.855469 L 78.378906 156.550781 Z M 60.527344 83.707031 " clip-rule="nonzero"/></clipPath><clipPath id="d45ed86ca8"><path d="M 60.527344 83.707031 L 206.21875 48.011719 L 224.066406 120.855469 L 78.378906 156.550781 Z M 60.527344 83.707031 " clip-rule="nonzero"/></clipPath></defs><g clip-path="url(#e2fda4bc91)"><g clip-path="url(#73b2f95610)"><g clip-path="url(#28b6abfd12)"><g clip-path="url(#932a16fabe)"><g clip-path="url(#a6900d4da9)"><g clip-path="url(#085e82f5ce)"><g clip-path="url(#867689d371)"><g clip-path="url(#82492d4623)"><g clip-path="url(#f142e5cd0f)"><g clip-path="url(#bfbc02d05b)"><path fill="#050606" d="M 61.222656 86.199219 L 76.367188 148.007812 L 221.960938 112.332031 L 206.816406 50.523438 Z M 61.222656 86.199219 " fill-opacity="1" fill-rule="nonzero"/></g></g></g></g></g></g></g></g></g></g><g clip-path="url(#abe6290f3f)"><g clip-path="url(#5050fe17d3)"><g clip-path="url(#7199ca99a4)"><g clip-path="url(#9a490c707f)"><path fill="#151516" d="M 187.671875 99.945312 C 185.011719 94.167969 164.542969 93.066406 142.289062 101.921875 C 120.03125 110.777344 107.425781 122.648438 107.09375 131.945312 C 107.085938 132.148438 107.207031 132.234375 107.253906 132.359375 L 107.25 132.363281 L 114.191406 147.785156 L 194.214844 114.726562 L 187.671875 99.945312 " fill-opacity="1" fill-rule="nonzero"/></g></g></g></g><g clip-path="url(#960db597dc)"><g clip-path="url(#06e2bc2865)"><g clip-path="url(#6ee3c60c3f)"><g clip-path="url(#c58968a318)"><path fill="#28292a" d="M 128.511719 69.726562 L 127.847656 67.203125 L 213.273438 77.152344 L 213.828125 79.140625 L 128.511719 69.726562 " fill-opacity="1" fill-rule="nonzero"/></g></g></g></g><g clip-path="url(#3e85228f7c)"><g clip-path="url(#5ba61eb327)"><g clip-path="url(#d93647b8dc)"><g clip-path="url(#567dba2d99)"><path fill="#28292a" d="M 72.925781 133.972656 L 72.351562 131.890625 L 127.847656 67.203125 L 128.511719 69.726562 L 72.925781 133.972656 " fill-opacity="1" fill-rule="nonzero"/></g></g></g></g><g clip-path="url(#e212cc823d)"><g clip-path="url(#781114b34f)"><g clip-path="url(#436d8e4111)"><g clip-path="url(#09d42d2082)"><path fill="#d7b54b" d="M 124.941406 70.601562 C 123.46875 71.917969 122.097656 73.324219 120.890625 74.839844 C 120.285156 75.597656 119.730469 76.390625 119.25 77.210938 C 118.773438 78.035156 118.367188 78.894531 118.109375 79.78125 C 117.980469 80.222656 117.890625 80.671875 117.847656 81.121094 C 117.804688 81.566406 117.800781 82.050781 117.808594 82.527344 C 117.824219 83.492188 117.890625 84.46875 117.957031 85.449219 L 118.179688 88.390625 L 118.394531 91.351562 C 118.527344 93.324219 118.636719 95.308594 118.632812 97.304688 C 118.636719 98.304688 118.609375 99.304688 118.523438 100.320312 C 118.433594 101.335938 118.269531 102.328125 118.082031 103.316406 C 117.707031 105.289062 117.175781 107.210938 116.59375 109.109375 C 116.003906 111.011719 115.359375 112.878906 114.613281 114.738281 C 114.492188 115.039062 114.144531 115.1875 113.839844 115.0625 C 113.542969 114.945312 113.394531 114.609375 113.503906 114.3125 L 113.503906 114.300781 C 114.816406 110.628906 115.980469 106.859375 116.707031 103.050781 C 116.882812 102.101562 117.03125 101.144531 117.105469 100.195312 C 117.1875 99.246094 117.214844 98.273438 117.214844 97.300781 C 117.214844 95.355469 117.128906 93.394531 117.019531 91.433594 C 116.910156 89.46875 116.773438 87.503906 116.675781 85.523438 C 116.628906 84.535156 116.585938 83.542969 116.585938 82.535156 C 116.589844 82.027344 116.601562 81.523438 116.664062 80.984375 C 116.730469 80.453125 116.859375 79.9375 117.023438 79.441406 C 117.1875 78.941406 117.390625 78.464844 117.625 78 C 117.855469 77.542969 118.121094 77.101562 118.402344 76.679688 C 118.683594 76.257812 118.984375 75.847656 119.300781 75.453125 C 119.621094 75.066406 119.953125 74.6875 120.300781 74.324219 C 120.640625 73.960938 121 73.609375 121.367188 73.273438 C 121.734375 72.9375 122.109375 72.605469 122.496094 72.296875 C 123.273438 71.667969 124.234375 71 124.96875 70.5625 C 124.976562 70.558594 124.976562 70.554688 124.980469 70.5625 C 124.984375 70.570312 124.949219 70.597656 124.941406 70.601562 " fill-opacity="1" fill-rule="nonzero"/></g></g></g></g><g clip-path="url(#c3d545f7d3)"><g clip-path="url(#b28ed0ba7a)"><g clip-path="url(#c89f9c4ba2)"><g clip-path="url(#f343eceeeb)"><path fill="#946f18" d="M 111.773438 131.3125 C 111.773438 131.320312 111.769531 131.34375 111.769531 131.375 C 111.769531 131.355469 111.769531 131.332031 111.773438 131.3125 Z M 112.453125 131.992188 C 112.410156 131.996094 112.371094 131.996094 112.328125 131.992188 C 112.011719 131.960938 111.773438 131.695312 111.769531 131.378906 C 111.765625 131.355469 111.765625 131.3125 111.761719 131.246094 C 111.570312 128.394531 111.289062 121.09375 112.835938 114.875 C 112.917969 114.542969 113.253906 114.34375 113.585938 114.425781 C 113.917969 114.507812 114.121094 114.84375 114.035156 115.179688 C 112.535156 121.222656 112.808594 128.371094 112.996094 131.164062 C 113.011719 131.355469 113.011719 131.375 113.007812 131.4375 C 112.976562 131.734375 112.738281 131.964844 112.453125 131.992188 " fill-opacity="1" fill-rule="nonzero"/></g></g></g></g><g clip-path="url(#181433a942)"><g clip-path="url(#df9fc8320b)"><g clip-path="url(#d074185be9)"><g clip-path="url(#bd4725d8e2)"><path fill="#946f18" d="M 120.027344 131.050781 C 119.6875 131.085938 119.382812 130.835938 119.351562 130.496094 C 119.339844 130.410156 118.449219 121.875 114.179688 115.234375 C 113.992188 114.949219 114.074219 114.5625 114.363281 114.378906 C 114.652344 114.191406 115.035156 114.277344 115.21875 114.566406 C 119.65625 121.460938 120.546875 130.011719 120.582031 130.375 C 120.617188 130.714844 120.367188 131.019531 120.027344 131.050781 " fill-opacity="1" fill-rule="nonzero"/><path fill="#946f18" d="M 119.976562 131.117188 C 119.972656 131.117188 119.972656 131.117188 119.972656 131.117188 C 119.632812 131.152344 119.328125 130.902344 119.296875 130.558594 C 119.285156 130.472656 118.398438 121.9375 114.128906 115.300781 C 113.941406 115.011719 114.023438 114.625 114.3125 114.441406 C 114.597656 114.253906 114.980469 114.339844 115.167969 114.628906 C 119.605469 121.523438 120.492188 130.078125 120.527344 130.4375 C 120.5625 130.777344 120.316406 131.082031 119.976562 131.117188 " fill-opacity="1" fill-rule="nonzero"/></g></g></g></g><g clip-path="url(#7af2aa0fdb)"><g clip-path="url(#b1c2046e40)"><g clip-path="url(#d3603ea568)"><g clip-path="url(#972d08b101)"><path fill="#946f18" d="M 113.914062 132.203125 C 113.910156 132.203125 113.90625 132.203125 113.898438 132.207031 C 113.558594 132.230469 113.261719 131.972656 113.234375 131.632812 C 113.195312 131.140625 112.316406 119.515625 113.121094 115.132812 C 113.183594 114.796875 113.503906 114.574219 113.839844 114.636719 C 114.175781 114.699219 114.402344 115.023438 114.339844 115.359375 C 113.566406 119.585938 114.460938 131.417969 114.46875 131.539062 C 114.496094 131.875 114.246094 132.167969 113.914062 132.203125 " fill-opacity="1" fill-rule="nonzero"/></g></g></g></g><g clip-path="url(#8c2505dfd7)"><g clip-path="url(#c07f77e2c9)"><g clip-path="url(#7cbf627b05)"><g clip-path="url(#6c7596efea)"><path fill="#946f18" d="M 115.429688 132.308594 C 115.421875 132.308594 115.417969 132.308594 115.414062 132.308594 C 115.074219 132.335938 114.777344 132.082031 114.746094 131.738281 L 113.417969 115.265625 C 113.390625 114.921875 113.644531 114.628906 113.984375 114.59375 C 114.328125 114.570312 114.625 114.824219 114.65625 115.164062 L 115.984375 131.640625 C 116.011719 131.980469 115.761719 132.273438 115.429688 132.308594 " fill-opacity="1" fill-rule="nonzero"/></g></g></g></g><g clip-path="url(#4504be9a3a)"><g clip-path="url(#6b99c94e8e)"><g clip-path="url(#1a66a4695a)"><g clip-path="url(#49fcb729fd)"><path fill="#946f18" d="M 116.984375 132.152344 C 116.65625 132.183594 116.355469 131.953125 116.308594 131.621094 C 116.289062 131.496094 114.515625 119.285156 113.4375 115.378906 C 113.347656 115.050781 113.542969 114.707031 113.871094 114.617188 C 114.199219 114.523438 114.542969 114.71875 114.632812 115.050781 C 115.730469 119.03125 117.460938 130.9375 117.535156 131.445312 C 117.582031 131.785156 117.347656 132.097656 117.011719 132.144531 C 117 132.148438 116.992188 132.148438 116.984375 132.152344 " fill-opacity="1" fill-rule="nonzero"/></g></g></g></g><g clip-path="url(#8ebdfa89aa)"><g clip-path="url(#a28439744d)"><g clip-path="url(#e8e8ca952c)"><g clip-path="url(#d6bbc415d5)"><path fill="#946f18" d="M 118.632812 131.53125 C 118.300781 131.5625 118 131.328125 117.953125 130.996094 C 117.941406 130.886719 116.425781 120.121094 113.328125 115.507812 C 113.140625 115.222656 113.214844 114.835938 113.5 114.644531 C 113.78125 114.453125 114.167969 114.53125 114.355469 114.8125 C 117.613281 119.664062 119.121094 130.375 119.183594 130.828125 C 119.230469 131.167969 118.992188 131.480469 118.652344 131.527344 C 118.644531 131.527344 118.636719 131.527344 118.632812 131.53125 " fill-opacity="1" fill-rule="nonzero"/></g></g></g></g><g clip-path="url(#2b268c0b5d)"><g clip-path="url(#add72b28a1)"><g clip-path="url(#4e1df63d9c)"><g clip-path="url(#34c9e327b8)"><path fill="#946f18" d="M 115.308594 114.609375 C 115.472656 115.121094 114.609375 115.332031 113.957031 115.398438 C 113.300781 115.464844 112.664062 115.328125 112.632812 114.992188 C 112.597656 114.65625 113.175781 114.253906 113.832031 114.179688 C 114.753906 114.078125 115.195312 114.261719 115.308594 114.609375 " fill-opacity="1" fill-rule="nonzero"/></g></g></g></g><g clip-path="url(#23020d0232)"><g clip-path="url(#11221e096f)"><g clip-path="url(#5a9d2b4a05)"><g clip-path="url(#2b6c3df3e6)"><path fill="#d7b54b" d="M 111.746094 131.199219 C 111.746094 131.207031 111.742188 131.230469 111.742188 131.261719 C 111.742188 131.242188 111.742188 131.222656 111.746094 131.199219 Z M 112.425781 131.878906 C 112.382812 131.882812 112.34375 131.882812 112.300781 131.878906 C 111.984375 131.847656 111.746094 131.582031 111.742188 131.269531 C 111.738281 131.246094 111.738281 131.199219 111.734375 131.132812 C 111.542969 128.28125 111.261719 120.980469 112.808594 114.761719 C 112.890625 114.429688 113.226562 114.226562 113.558594 114.3125 C 113.890625 114.394531 114.09375 114.730469 114.007812 115.066406 C 112.503906 121.109375 112.78125 128.257812 112.96875 131.050781 C 112.984375 131.242188 112.984375 131.265625 112.980469 131.324219 C 112.949219 131.621094 112.710938 131.851562 112.425781 131.878906 " fill-opacity="1" fill-rule="nonzero"/></g></g></g></g><g clip-path="url(#a5125980a2)"><g clip-path="url(#7f4c6ec107)"><g clip-path="url(#16e781eb2a)"><g clip-path="url(#35f9d48379)"><path fill="#d7b54b" d="M 120 130.9375 C 119.660156 130.972656 119.355469 130.722656 119.320312 130.382812 C 119.3125 130.296875 118.421875 121.761719 114.152344 115.125 C 113.964844 114.835938 114.046875 114.449219 114.335938 114.265625 C 114.625 114.078125 115.007812 114.160156 115.191406 114.453125 C 119.628906 121.347656 120.519531 129.902344 120.554688 130.261719 C 120.589844 130.601562 120.339844 130.902344 120 130.9375 " fill-opacity="1" fill-rule="nonzero"/></g></g></g></g><g clip-path="url(#067b45cb7d)"><g clip-path="url(#33a1539f56)"><g clip-path="url(#2945214db5)"><g clip-path="url(#c6801de075)"><path fill="#d7b54b" d="M 113.886719 132.089844 C 113.882812 132.09375 113.875 132.089844 113.871094 132.09375 C 113.53125 132.117188 113.234375 131.859375 113.203125 131.519531 C 113.167969 131.027344 112.289062 119.40625 113.09375 115.019531 C 113.15625 114.683594 113.476562 114.460938 113.8125 114.523438 C 114.148438 114.585938 114.375 114.910156 114.3125 115.246094 C 113.539062 119.472656 114.433594 131.304688 114.441406 131.425781 C 114.46875 131.761719 114.21875 132.058594 113.886719 132.089844 " fill-opacity="1" fill-rule="nonzero"/></g></g></g></g><g clip-path="url(#3ef79abb4f)"><g clip-path="url(#cdbf7f10c3)"><g clip-path="url(#23d37deb3a)"><g clip-path="url(#82709b036f)"><path fill="#d7b54b" d="M 115.398438 132.195312 C 115.394531 132.195312 115.390625 132.195312 115.386719 132.195312 C 115.046875 132.222656 114.746094 131.964844 114.71875 131.625 L 113.390625 115.152344 C 113.363281 114.808594 113.617188 114.511719 113.957031 114.484375 C 114.296875 114.457031 114.597656 114.710938 114.625 115.050781 L 115.957031 131.527344 C 115.984375 131.863281 115.734375 132.164062 115.398438 132.195312 " fill-opacity="1" fill-rule="nonzero"/></g></g></g></g><g clip-path="url(#d905c2db5d)"><g clip-path="url(#74783733e4)"><g clip-path="url(#eb736a00a4)"><g clip-path="url(#e4d8db0aed)"><path fill="#d7b54b" d="M 116.953125 132.039062 C 116.628906 132.070312 116.328125 131.839844 116.28125 131.507812 C 116.261719 131.386719 114.488281 119.171875 113.410156 115.265625 C 113.320312 114.9375 113.511719 114.59375 113.84375 114.503906 C 114.171875 114.414062 114.511719 114.605469 114.605469 114.9375 C 115.703125 118.917969 117.433594 130.828125 117.507812 131.332031 C 117.554688 131.671875 117.320312 131.984375 116.984375 132.035156 C 116.972656 132.035156 116.964844 132.039062 116.953125 132.039062 " fill-opacity="1" fill-rule="nonzero"/></g></g></g></g><g clip-path="url(#32ea44e20c)"><g clip-path="url(#75bde43bdf)"><g clip-path="url(#0c71597aad)"><g clip-path="url(#1994233e6a)"><path fill="#d7b54b" d="M 118.601562 131.417969 C 118.273438 131.449219 117.972656 131.21875 117.925781 130.882812 C 117.910156 130.773438 116.398438 120.007812 113.300781 115.394531 C 113.113281 115.109375 113.1875 114.722656 113.472656 114.53125 C 113.753906 114.34375 114.140625 114.417969 114.328125 114.699219 C 117.585938 119.550781 119.09375 130.257812 119.15625 130.714844 C 119.203125 131.054688 118.960938 131.367188 118.625 131.414062 C 118.617188 131.414062 118.609375 131.417969 118.601562 131.417969 " fill-opacity="1" fill-rule="nonzero"/></g></g></g></g><g clip-path="url(#672b6ba997)"><g clip-path="url(#b6d2a783c9)"><g clip-path="url(#96f11a3350)"><g clip-path="url(#d45ed86ca8)"><path fill="#d7b54b" d="M 115.484375 114.507812 C 115.648438 115.019531 114.582031 115.21875 113.925781 115.285156 C 113.269531 115.351562 112.636719 115.21875 112.605469 114.878906 C 112.570312 114.546875 113.148438 114.140625 113.800781 114.066406 C 114.726562 113.964844 115.371094 114.164062 115.484375 114.507812 " fill-opacity="1" fill-rule="nonzero"/></g></g></g></g></svg>