<svg xmlns="http://www.w3.org/2000/svg" xmlns:xlink="http://www.w3.org/1999/xlink" visibility="visible"  fill="none" stroke="black" width="100" zoomAndPan="magnify" viewBox="0 0 375 374.999991" height="100" preserveAspectRatio="xMidYMid meet" version="1.0"><defs><g/><clipPath id="f1b1a0d5eb"><path d="M 143.792969 107.117188 L 235.640625 107.117188 L 235.640625 182.414062 L 143.792969 182.414062 Z M 143.792969 107.117188 " clip-rule="nonzero"/></clipPath><clipPath id="4c5141c839"><path d="M 138.324219 161.417969 L 241.382812 161.417969 L 241.382812 203.070312 L 138.324219 203.070312 Z M 138.324219 161.417969 " clip-rule="nonzero"/></clipPath></defs><g clip-path="url(#f1b1a0d5eb)"><path fill="#000000" d="M 160.492188 149.703125 L 160.492188 166.433594 L 189.71875 182.414062 L 218.941406 166.433594 L 218.941406 149.703125 L 189.71875 165.679688 Z M 189.71875 107.121094 L 143.792969 132.21875 L 189.71875 157.316406 L 227.292969 136.777344 L 227.292969 165.679688 L 235.640625 165.679688 L 235.640625 132.21875 Z M 189.71875 107.121094 " fill-opacity="1" fill-rule="nonzero"/></g><g clip-path="url(#4c5141c839)"><path fill="#000000" d="M 239.820312 178.199219 C 238.648438 179.316406 236.863281 180.578125 234.464844 181.988281 C 232.066406 183.410156 227.734375 184.796875 221.460938 186.152344 C 228.371094 183.570312 231.148438 182.210938 229.785156 182.078125 L 222.671875 182.902344 C 227.6875 181.683594 231.019531 180.785156 232.667969 180.203125 C 235.988281 179.0625 238.375 178.394531 239.820312 178.199219 Z M 234.339844 176.789062 C 232.78125 177.898438 229.167969 179.589844 223.503906 181.863281 C 226.742188 180.316406 229.226562 178.871094 230.957031 177.539062 C 232.65625 176.234375 233.367188 175.472656 233.089844 175.242188 C 232.808594 175.023438 230.285156 175.703125 225.515625 177.285156 C 231.484375 174.875 234.980469 173.421875 236.019531 172.921875 C 237.695312 172.117188 239.210938 171.503906 240.574219 171.085938 C 238.675781 173.332031 236.597656 175.234375 234.339844 176.789062 Z M 224.34375 176.457031 C 223.507812 178.480469 221.917969 180.242188 219.574219 181.738281 C 217.203125 183.207031 214.148438 184.515625 210.410156 185.65625 C 213.089844 184.351562 216.128906 182.492188 219.535156 180.074219 C 216.800781 180.828125 214.566406 181.453125 212.832031 181.953125 C 214.566406 181.199219 216.601562 180.355469 218.949219 179.414062 C 221.289062 178.441406 223.085938 177.457031 224.34375 176.457031 Z M 228.105469 187.988281 C 227.324219 188.039062 224.675781 187.910156 220.160156 187.609375 C 227.300781 186.914062 231.5 186.445312 232.757812 186.199219 C 234.59375 185.863281 236.226562 185.667969 237.652344 185.617188 C 235.195312 187.28125 232.695312 188.558594 230.15625 189.445312 C 227.929688 190.277344 224.425781 190.871094 219.652344 191.234375 C 223.867188 190.238281 226.519531 189.429688 227.605469 188.8125 C 228.722656 188.230469 228.886719 187.957031 228.105469 187.988281 Z M 216.476562 187.074219 C 214.023438 188.402344 210.898438 189.523438 207.109375 190.4375 C 209.871094 189.300781 213.019531 187.640625 216.566406 185.449219 C 213.773438 186 211.496094 186.484375 209.746094 186.898438 C 211.53125 186.265625 213.609375 185.542969 215.976562 184.742188 C 218.375 183.902344 220.230469 183.03125 221.539062 182.117188 C 220.621094 184.085938 218.933594 185.738281 216.476562 187.074219 Z M 223.042969 199.351562 L 224.96875 200.097656 C 223.882812 200.570312 222.402344 200.820312 220.535156 200.847656 C 218.636719 200.847656 214.859375 200.277344 209.199219 199.136719 C 214.613281 199.804688 218.082031 199.957031 219.613281 199.59375 C 220.089844 199.457031 220.117188 199.320312 219.703125 199.183594 C 218.332031 198.601562 216.0625 197.921875 212.882812 197.144531 C 214.054688 197.390625 215.726562 197.75 217.90625 198.222656 C 220.191406 198.695312 221.90625 199.074219 223.042969 199.351562 Z M 216.769531 193.1875 C 222.824219 193.246094 228.21875 192.910156 232.960938 192.1875 C 230.589844 193.878906 228.230469 195.054688 225.886719 195.722656 C 222.820312 196.585938 218.554688 196.726562 213.089844 196.144531 C 219.222656 195.78125 223.210938 195.074219 225.054688 194.023438 C 223.992188 193.855469 221.230469 193.578125 216.769531 193.1875 Z M 208.152344 187.824219 C 207.539062 188.734375 205.28125 189.625 201.371094 190.484375 C 204.195312 189.648438 205.894531 188.859375 206.484375 188.113281 L 203.589844 188.277344 C 204.625 187.917969 206.289062 187.550781 208.574219 187.191406 C 208.429688 187.332031 208.289062 187.542969 208.152344 187.824219 Z M 210.078125 183.824219 C 209.515625 184.765625 207.3125 185.792969 203.460938 186.898438 C 206.222656 185.902344 207.875 185.011719 208.40625 184.234375 L 205.554688 184.578125 C 206.5625 184.152344 208.195312 183.695312 210.449219 183.195312 C 210.335938 183.363281 210.214844 183.574219 210.078125 183.824219 Z M 201.5 195.394531 C 203.089844 195.308594 205.738281 195.28125 209.453125 195.308594 C 210.148438 195.308594 210.761719 195.292969 211.289062 195.269531 C 210.144531 196.15625 208.675781 196.792969 206.890625 197.183594 C 204.605469 197.683594 201.804688 197.835938 198.488281 197.640625 C 200.996094 197.363281 203.796875 196.972656 206.890625 196.472656 Z M 205.476562 191.652344 C 205.304688 191.8125 205.136719 192.003906 204.964844 192.226562 C 204.328125 193.121094 202.015625 193.839844 198.03125 194.390625 C 200.902344 193.78125 202.660156 193.121094 203.296875 192.398438 L 200.414062 192.398438 C 201.472656 192.097656 203.15625 191.847656 205.476562 191.652344 Z M 205.347656 199.300781 C 206.105469 199.527344 207.792969 200.058594 210.410156 200.886719 C 212.867188 201.691406 214.59375 202.328125 215.597656 202.800781 C 214.007812 202.945312 213.074219 203.011719 212.792969 203.011719 C 211.230469 203.011719 208.75 202.582031 205.347656 201.722656 C 202.5625 200.996094 200.078125 200.261719 197.902344 199.515625 L 199.40625 199.769531 C 205.179688 201.207031 208.761719 201.691406 210.15625 201.21875 C 209.6875 201.054688 209.140625 200.847656 208.523438 200.59375 C 207.4375 200.179688 206.375 199.75 205.347656 199.300781 Z M 212.207031 190.320312 C 214.722656 189.847656 216.691406 189.261719 218.109375 188.570312 C 216.882812 190.371094 214.960938 191.757812 212.335938 192.730469 C 209.742188 193.703125 206.492188 194.367188 202.582031 194.722656 C 205.457031 193.976562 208.816406 192.773438 212.667969 191.105469 C 209.828125 191.300781 207.515625 191.464844 205.730469 191.601562 C 207.566406 191.214844 209.726562 190.789062 212.207031 190.320312 Z M 225.847656 176.535156 C 231.175781 173.738281 234.496094 170.867188 235.804688 167.925781 C 224.175781 176.667969 213.121094 181.96875 202.632812 183.824219 C 216.601562 179.769531 229.515625 172.320312 241.375 161.46875 C 239.894531 167.828125 234.71875 172.851562 225.847656 176.535156 Z M 174.726562 192.226562 C 174.554688 192.003906 174.402344 191.8125 174.265625 191.652344 C 176.582031 191.847656 178.265625 192.097656 179.328125 192.398438 L 176.4375 192.398438 C 177.082031 193.121094 178.824219 193.78125 181.664062 194.394531 C 177.703125 193.839844 175.390625 193.121094 174.726562 192.226562 Z M 172.800781 197.179688 C 171.042969 196.792969 169.59375 196.15625 168.445312 195.269531 C 168.945312 195.292969 169.5625 195.308594 170.289062 195.308594 C 173.972656 195.28125 176.605469 195.308594 178.195312 195.394531 L 172.800781 196.472656 C 175.898438 196.972656 178.699219 197.363281 181.203125 197.640625 C 177.917969 197.835938 175.117188 197.683594 172.800781 197.179688 Z M 169.246094 183.195312 C 171.503906 183.695312 173.152344 184.152344 174.179688 184.578125 L 171.296875 184.234375 C 171.824219 185.011719 173.484375 185.902344 176.269531 186.898438 C 172.421875 185.792969 170.21875 184.765625 169.667969 183.824219 C 169.523438 183.574219 169.382812 183.363281 169.246094 183.195312 Z M 171.582031 187.824219 C 171.417969 187.542969 171.261719 187.332031 171.121094 187.191406 C 173.414062 187.550781 175.085938 187.917969 176.144531 188.277344 L 173.261719 188.113281 C 173.847656 188.859375 175.546875 189.648438 178.359375 190.484375 C 174.460938 189.625 172.199219 188.734375 171.582031 187.824219 Z M 166.9375 203.011719 C 166.660156 203.011719 165.726562 202.945312 164.136719 202.800781 C 165.140625 202.328125 166.871094 201.691406 169.324219 200.886719 C 171.917969 200.058594 173.589844 199.527344 174.34375 199.300781 C 173.316406 199.75 172.257812 200.179688 171.171875 200.59375 C 170.585938 200.847656 170.054688 201.054688 169.578125 201.21875 C 170.945312 201.691406 174.527344 201.207031 180.324219 199.769531 L 181.839844 199.515625 C 179.664062 200.261719 177.179688 200.996094 174.382812 201.722656 C 170.957031 202.582031 168.476562 203.011719 166.9375 203.011719 Z M 158.195312 182.117188 C 159.480469 183.03125 161.320312 183.902344 163.726562 184.742188 C 166.121094 185.542969 168.210938 186.265625 170 186.898438 C 168.242188 186.484375 165.964844 186 163.179688 185.449219 C 166.722656 187.640625 169.875 189.300781 172.636719 190.4375 C 168.8125 189.523438 165.6875 188.402344 163.257812 187.074219 C 160.804688 185.738281 159.121094 184.085938 158.195312 182.117188 Z M 152.085938 188.8125 C 153.203125 189.429688 155.851562 190.238281 160.042969 191.234375 C 155.300781 190.871094 151.8125 190.277344 149.578125 189.445312 C 147.011719 188.558594 144.515625 187.28125 142.09375 185.617188 C 143.511719 185.667969 145.128906 185.863281 146.9375 186.199219 C 148.195312 186.445312 152.410156 186.914062 159.582031 187.609375 C 155.0625 187.910156 152.398438 188.039062 151.589844 187.988281 C 150.835938 187.957031 151 188.230469 152.085938 188.8125 Z M 154.636719 194.023438 C 156.507812 195.074219 160.511719 195.78125 166.648438 196.144531 C 161.179688 196.726562 156.902344 196.585938 153.808594 195.722656 C 151.464844 195.054688 149.105469 193.878906 146.734375 192.1875 C 151.476562 192.910156 156.882812 193.246094 162.964844 193.1875 C 158.5 193.578125 155.726562 193.855469 154.636719 194.023438 Z M 159.203125 200.847656 C 157.304688 200.820312 155.8125 200.570312 154.726562 200.097656 L 156.652344 199.351562 C 157.824219 199.074219 159.539062 198.695312 161.800781 198.222656 C 164 197.75 165.691406 197.390625 166.859375 197.140625 C 163.683594 197.921875 161.410156 198.601562 160.042969 199.183594 C 159.617188 199.320312 159.644531 199.457031 160.117188 199.59375 C 161.625 199.957031 165.097656 199.804688 170.535156 199.136719 C 164.875 200.277344 161.097656 200.847656 159.203125 200.847656 Z M 161.625 188.570312 C 163.050781 189.261719 165.003906 189.847656 167.488281 190.320312 C 169.996094 190.789062 172.15625 191.214844 173.976562 191.601562 C 172.191406 191.46875 169.886719 191.300781 167.066406 191.105469 C 170.890625 192.773438 174.25 193.976562 177.152344 194.722656 C 173.25 194.367188 169.984375 193.703125 167.359375 192.730469 C 164.742188 191.757812 162.832031 190.371094 161.625 188.570312 Z M 143.929688 167.925781 C 145.238281 170.867188 148.542969 173.738281 153.847656 176.535156 C 145.007812 172.851562 139.832031 167.828125 138.324219 161.46875 C 150.199219 172.320312 163.113281 179.769531 177.0625 183.824219 C 166.609375 181.96875 155.5625 176.667969 143.929688 167.925781 Z M 155.390625 176.457031 C 156.625 177.457031 158.421875 178.441406 160.796875 179.414062 C 163.132812 180.355469 165.167969 181.199219 166.898438 181.953125 C 165.140625 181.453125 162.898438 180.828125 160.167969 180.074219 C 163.566406 182.492188 166.621094 184.351562 169.324219 185.65625 C 165.558594 184.515625 162.507812 183.207031 160.167969 181.738281 C 157.796875 180.242188 156.207031 178.480469 155.390625 176.457031 Z M 139.914062 178.199219 C 141.335938 178.394531 143.71875 179.0625 147.066406 180.203125 C 148.6875 180.785156 152.023438 181.683594 157.070312 182.902344 L 149.960938 182.078125 C 148.5625 182.210938 151.339844 183.570312 158.285156 186.152344 C 151.976562 184.796875 147.640625 183.410156 145.265625 181.988281 C 142.871094 180.578125 141.085938 179.316406 139.914062 178.199219 Z M 146.609375 175.242188 C 146.359375 175.472656 147.085938 176.234375 148.785156 177.539062 C 150.484375 178.871094 152.96875 180.316406 156.230469 181.863281 C 150.542969 179.589844 146.917969 177.898438 145.355469 176.789062 C 143.09375 175.234375 141.015625 173.332031 139.125 171.085938 C 140.488281 171.503906 142.007812 172.117188 143.675781 172.921875 C 144.734375 173.421875 148.253906 174.875 154.226562 177.285156 C 149.453125 175.703125 146.914062 175.023438 146.609375 175.242188 Z M 146.609375 175.242188 " fill-opacity="1" fill-rule="evenodd"/></g><g fill="#ffc1b2" fill-opacity="0.302"><g transform="translate(143.434669, 221.451936)"><g><path d="M 12.125 -16.671875 C 11.839844 -16.402344 11.507812 -16.285156 11.140625 -16.285156 L 2.265625 -16.285156 C 2.148438 -16.285156 2.066406 -16.238281 2.03125 -16.136719 C 1.980469 -16.039062 1.980469 -15.953125 2.046875 -15.871094 L 2.097656 -15.820312 C 2.363281 -15.519531 2.496094 -15.171875 2.496094 -14.773438 L 2.496094 -1.25 C 2.496094 -1.050781 2.464844 -0.867188 2.398438 -0.683594 C 2.332031 -0.5 2.230469 -0.332031 2.097656 -0.199219 L 2.046875 -0.148438 C 1.980469 -0.0507812 1.980469 0.0351562 2.03125 0.132812 C 2.066406 0.234375 2.148438 0.265625 2.265625 0.265625 L 11.140625 0.265625 C 11.507812 0.265625 11.839844 0.398438 12.125 0.648438 C 12.207031 0.734375 12.308594 0.75 12.40625 0.699219 C 12.507812 0.667969 12.574219 0.582031 12.574219 0.449219 L 12.574219 -3.265625 C 12.574219 -3.363281 12.523438 -3.445312 12.421875 -3.496094 C 12.324219 -3.53125 12.222656 -3.515625 12.15625 -3.445312 C 11.855469 -3.164062 11.507812 -3.03125 11.109375 -3.03125 L 6.210938 -3.03125 C 6.09375 -3.03125 5.996094 -3.0625 5.910156 -3.148438 C 5.828125 -3.214844 5.796875 -3.3125 5.796875 -3.445312 L 5.796875 -5.945312 C 5.796875 -6.0625 5.828125 -6.160156 5.910156 -6.246094 C 5.996094 -6.3125 6.09375 -6.363281 6.210938 -6.363281 L 7.675781 -6.363281 C 8.078125 -6.363281 8.425781 -6.210938 8.726562 -5.945312 C 8.808594 -5.878906 8.894531 -5.878906 8.992188 -5.929688 C 9.09375 -5.980469 9.144531 -6.0625 9.144531 -6.160156 L 9.144531 -9.859375 C 9.144531 -9.957031 9.09375 -10.023438 8.992188 -10.074219 C 8.894531 -10.125 8.808594 -10.125 8.726562 -10.074219 C 8.425781 -9.792969 8.078125 -9.660156 7.675781 -9.660156 L 6.210938 -9.660156 C 6.09375 -9.660156 5.996094 -9.691406 5.910156 -9.777344 C 5.828125 -9.84375 5.796875 -9.941406 5.796875 -10.074219 L 5.796875 -12.574219 C 5.796875 -12.691406 5.828125 -12.789062 5.910156 -12.875 C 5.996094 -12.941406 6.09375 -12.988281 6.210938 -12.988281 L 11.109375 -12.988281 C 11.507812 -12.988281 11.855469 -12.839844 12.15625 -12.574219 C 12.222656 -12.488281 12.324219 -12.472656 12.421875 -12.523438 C 12.523438 -12.558594 12.574219 -12.640625 12.574219 -12.757812 L 12.574219 -16.488281 C 12.574219 -16.585938 12.507812 -16.671875 12.40625 -16.71875 C 12.308594 -16.753906 12.207031 -16.738281 12.125 -16.671875 Z M 12.125 -16.671875 "/></g></g></g><g fill="#ffc1b2" fill-opacity="0.302"><g transform="translate(158.002833, 221.451936)"><g><path d="M 12.824219 -13.605469 C 12.289062 -14.554688 11.640625 -15.289062 10.875 -15.789062 C 10.109375 -16.285156 9.242188 -16.554688 8.308594 -16.554688 L 2.25 -16.554688 C 2.132812 -16.554688 2.046875 -16.503906 2.015625 -16.402344 C 1.964844 -16.304688 1.980469 -16.203125 2.066406 -16.136719 C 2.363281 -15.804688 2.53125 -15.40625 2.53125 -14.953125 L 2.53125 -1.582031 C 2.53125 -1.132812 2.363281 -0.734375 2.066406 -0.398438 C 1.980469 -0.316406 1.964844 -0.234375 2.015625 -0.132812 C 2.046875 -0.0351562 2.132812 0 2.25 0 L 8.308594 0 C 9.242188 0 10.109375 -0.25 10.875 -0.75 C 11.640625 -1.25 12.289062 -1.964844 12.824219 -2.914062 C 13.207031 -3.628906 13.507812 -4.445312 13.722656 -5.363281 C 13.9375 -6.277344 14.054688 -7.246094 14.054688 -8.261719 C 14.054688 -9.257812 13.9375 -10.226562 13.722656 -11.140625 C 13.507812 -12.058594 13.207031 -12.875 12.824219 -13.605469 Z M 9.925781 -4.511719 C 9.757812 -4.214844 9.59375 -3.980469 9.425781 -3.8125 C 9.257812 -3.648438 9.09375 -3.515625 8.960938 -3.445312 C 8.808594 -3.363281 8.675781 -3.3125 8.558594 -3.3125 C 8.441406 -3.296875 8.359375 -3.296875 8.308594 -3.296875 L 6.445312 -3.296875 C 6.277344 -3.296875 6.128906 -3.347656 6.011719 -3.480469 C 5.878906 -3.597656 5.828125 -3.746094 5.828125 -3.914062 L 5.828125 -12.421875 C 5.828125 -12.640625 5.894531 -12.824219 6.0625 -12.988281 C 6.226562 -13.15625 6.429688 -13.238281 6.660156 -13.238281 L 8.308594 -13.238281 C 8.675781 -13.238281 9.027344 -13.089844 9.324219 -12.804688 C 9.625 -12.507812 9.890625 -12.125 10.109375 -11.65625 C 10.308594 -11.191406 10.476562 -10.65625 10.589844 -10.058594 C 10.691406 -9.460938 10.757812 -8.859375 10.757812 -8.261719 C 10.757812 -7.527344 10.675781 -6.828125 10.542969 -6.179688 C 10.390625 -5.527344 10.191406 -4.980469 9.925781 -4.511719 Z M 9.925781 -4.511719 "/></g></g></g><g fill="#ffc1b2" fill-opacity="0.302"><g transform="translate(173.386817, 221.451936)"><g><path d="M 14.273438 -16.535156 L 10.589844 -16.535156 C 10.476562 -16.535156 10.390625 -16.488281 10.359375 -16.402344 C 10.308594 -16.304688 10.308594 -16.21875 10.375 -16.136719 C 10.640625 -15.820312 10.792969 -15.472656 10.792969 -15.089844 L 10.792969 -5.378906 C 10.792969 -4.863281 10.65625 -4.464844 10.425781 -4.195312 C 10.191406 -3.914062 9.925781 -3.714844 9.625 -3.582031 C 9.324219 -3.445312 9.042969 -3.363281 8.777344 -3.332031 C 8.511719 -3.296875 8.34375 -3.296875 8.277344 -3.296875 C 8.210938 -3.296875 8.027344 -3.296875 7.761719 -3.332031 C 7.492188 -3.363281 7.210938 -3.445312 6.910156 -3.582031 C 6.613281 -3.714844 6.34375 -3.914062 6.113281 -4.195312 C 5.878906 -4.464844 5.761719 -4.863281 5.761719 -5.378906 L 5.761719 -15.089844 C 5.761719 -15.488281 5.894531 -15.835938 6.160156 -16.136719 C 6.210938 -16.21875 6.210938 -16.304688 6.179688 -16.402344 C 6.128906 -16.488281 6.046875 -16.535156 5.945312 -16.535156 L 2.265625 -16.535156 C 2.148438 -16.535156 2.066406 -16.488281 2.03125 -16.402344 C 1.980469 -16.304688 1.980469 -16.21875 2.046875 -16.136719 C 2.316406 -15.835938 2.449219 -15.488281 2.449219 -15.089844 L 2.449219 -5.378906 C 2.449219 -4.546875 2.613281 -3.78125 2.949219 -3.082031 C 3.28125 -2.382812 3.746094 -1.78125 4.378906 -1.28125 C 4.914062 -0.847656 5.511719 -0.53125 6.179688 -0.316406 C 6.84375 -0.0820312 7.542969 0.015625 8.277344 0.015625 C 9.007812 0.015625 9.691406 -0.0820312 10.359375 -0.316406 C 11.023438 -0.53125 11.625 -0.847656 12.15625 -1.28125 C 12.789062 -1.78125 13.257812 -2.382812 13.589844 -3.082031 C 13.921875 -3.78125 14.089844 -4.546875 14.089844 -5.378906 L 14.089844 -15.089844 C 14.089844 -15.453125 14.222656 -15.804688 14.488281 -16.136719 C 14.554688 -16.21875 14.554688 -16.304688 14.503906 -16.402344 C 14.457031 -16.488281 14.371094 -16.535156 14.273438 -16.535156 Z M 14.273438 -16.535156 "/></g></g></g><g fill="#ffc1b2" fill-opacity="0.302"><g transform="translate(189.936252, 221.451936)"><g><path d="M 14.253906 -0.464844 L 13.9375 -0.714844 C 13.707031 -0.867188 13.507812 -1.066406 13.339844 -1.332031 L 8.691406 -7.910156 C 8.59375 -8.011719 8.558594 -8.144531 8.558594 -8.277344 C 8.558594 -8.410156 8.59375 -8.527344 8.691406 -8.644531 L 13.339844 -15.238281 C 13.507812 -15.453125 13.707031 -15.671875 13.957031 -15.871094 L 14.253906 -16.085938 C 14.355469 -16.171875 14.386719 -16.285156 14.339844 -16.421875 C 14.273438 -16.503906 14.1875 -16.554688 14.105469 -16.554688 L 9.777344 -16.554688 C 9.660156 -16.554688 9.574219 -16.503906 9.542969 -16.402344 C 9.492188 -16.304688 9.492188 -16.21875 9.558594 -16.136719 L 9.574219 -16.121094 C 9.675781 -15.988281 9.691406 -15.855469 9.609375 -15.722656 L 6.3125 -11.023438 C 6.210938 -10.90625 6.113281 -10.875 5.980469 -10.90625 C 5.84375 -10.941406 5.796875 -11.042969 5.796875 -11.191406 L 5.796875 -15.203125 C 5.796875 -15.539062 5.910156 -15.855469 6.160156 -16.121094 C 6.226562 -16.203125 6.246094 -16.304688 6.210938 -16.402344 C 6.160156 -16.503906 6.078125 -16.554688 5.980469 -16.554688 L 2.25 -16.554688 C 2.132812 -16.554688 2.046875 -16.503906 2.015625 -16.402344 C 1.964844 -16.304688 1.980469 -16.21875 2.066406 -16.136719 C 2.347656 -15.820312 2.496094 -15.453125 2.496094 -15.019531 L 2.496094 -1.449219 C 2.496094 -1.066406 2.363281 -0.734375 2.113281 -0.464844 L 2.066406 -0.417969 C 2 -0.316406 2 -0.234375 2.046875 -0.132812 C 2.082031 -0.0351562 2.164062 0 2.28125 0 L 6.011719 0 C 6.113281 0 6.195312 -0.0507812 6.226562 -0.148438 C 6.261719 -0.25 6.261719 -0.332031 6.195312 -0.417969 C 5.929688 -0.699219 5.796875 -1.03125 5.796875 -1.398438 L 5.796875 -5.378906 C 5.796875 -5.511719 5.84375 -5.59375 5.980469 -5.644531 C 6.113281 -5.679688 6.210938 -5.644531 6.3125 -5.527344 L 9.609375 -0.847656 C 9.691406 -0.683594 9.675781 -0.550781 9.574219 -0.449219 L 9.558594 -0.417969 C 9.492188 -0.316406 9.492188 -0.234375 9.542969 -0.132812 C 9.574219 -0.0351562 9.660156 0 9.777344 0 L 14.105469 0 C 14.207031 0 14.273438 -0.0507812 14.339844 -0.148438 C 14.355469 -0.199219 14.355469 -0.25 14.355469 -0.316406 C 14.339844 -0.382812 14.304688 -0.433594 14.253906 -0.464844 Z M 14.253906 -0.464844 "/></g></g></g><g fill="#ffc1b2" fill-opacity="0.302"><g transform="translate(206.302547, 221.451936)"><g><path d="M 12.105469 -3.679688 L 11.90625 -3.515625 C 11.722656 -3.347656 11.523438 -3.28125 11.308594 -3.28125 L 6.144531 -3.28125 C 6.027344 -3.28125 5.929688 -3.3125 5.863281 -3.378906 C 5.777344 -3.445312 5.746094 -3.546875 5.746094 -3.679688 L 5.746094 -15.070312 C 5.746094 -15.453125 5.878906 -15.804688 6.144531 -16.105469 L 6.160156 -16.121094 C 6.210938 -16.203125 6.210938 -16.285156 6.179688 -16.386719 C 6.128906 -16.46875 6.046875 -16.519531 5.945312 -16.519531 L 2.265625 -16.519531 C 2.148438 -16.519531 2.066406 -16.46875 2.03125 -16.386719 C 1.980469 -16.285156 1.980469 -16.203125 2.046875 -16.121094 C 2.316406 -15.820312 2.449219 -15.472656 2.449219 -15.089844 L 2.449219 -0.367188 C 2.449219 -0.25 2.480469 -0.148438 2.566406 -0.0820312 C 2.632812 0 2.730469 0.0351562 2.847656 0.0351562 L 11.308594 0.0351562 C 11.523438 0.0351562 11.722656 0.117188 11.90625 0.265625 L 12.105469 0.433594 C 12.191406 0.5 12.273438 0.5 12.375 0.449219 C 12.457031 0.417969 12.507812 0.332031 12.507812 0.214844 L 12.507812 -3.464844 C 12.507812 -3.5625 12.457031 -3.648438 12.375 -3.695312 C 12.273438 -3.730469 12.191406 -3.730469 12.105469 -3.679688 Z M 12.105469 -3.679688 "/></g></g></g><g fill="#ffc1b2" fill-opacity="0.302"><g transform="translate(219.821808, 221.451936)"><g><path d="M 5.761719 -1.464844 L 5.761719 -15.089844 C 5.761719 -15.488281 5.894531 -15.835938 6.160156 -16.136719 C 6.210938 -16.21875 6.210938 -16.304688 6.179688 -16.402344 C 6.128906 -16.503906 6.046875 -16.554688 5.945312 -16.554688 L 2.265625 -16.554688 C 2.148438 -16.554688 2.066406 -16.503906 2.03125 -16.402344 C 1.980469 -16.304688 1.980469 -16.21875 2.046875 -16.136719 C 2.316406 -15.835938 2.464844 -15.488281 2.464844 -15.089844 L 2.464844 -1.464844 C 2.464844 -1.066406 2.316406 -0.714844 2.046875 -0.417969 C 1.980469 -0.316406 1.980469 -0.234375 2.03125 -0.132812 C 2.066406 -0.0351562 2.148438 0 2.265625 0 L 5.945312 0 C 6.046875 0 6.128906 -0.0351562 6.179688 -0.132812 C 6.210938 -0.234375 6.210938 -0.316406 6.160156 -0.417969 C 6.027344 -0.550781 5.929688 -0.714844 5.863281 -0.898438 C 5.796875 -1.082031 5.761719 -1.265625 5.761719 -1.464844 Z M 5.761719 -1.464844 "/></g></g></g><g fill="#ffc1b2" fill-opacity="0.302"><g transform="translate(228.046579, 221.451936)"><g><path d="M 12.589844 -13.957031 C 11.957031 -14.789062 11.207031 -15.421875 10.375 -15.871094 C 9.527344 -16.304688 8.644531 -16.535156 7.710938 -16.535156 C 6.777344 -16.535156 5.878906 -16.304688 5.03125 -15.871094 C 4.179688 -15.421875 3.445312 -14.789062 2.8125 -13.957031 C 2.214844 -13.171875 1.765625 -12.289062 1.464844 -11.324219 C 1.148438 -10.359375 1 -9.324219 1 -8.261719 C 1 -7.195312 1.148438 -6.160156 1.464844 -5.195312 C 1.765625 -4.214844 2.214844 -3.347656 2.8125 -2.582031 C 3.445312 -1.75 4.179688 -1.097656 5.03125 -0.667969 C 5.878906 -0.214844 6.777344 0 7.710938 0 C 8.644531 0 9.527344 -0.214844 10.375 -0.667969 C 11.207031 -1.097656 11.957031 -1.75 12.589844 -2.582031 C 13.191406 -3.347656 13.640625 -4.214844 13.957031 -5.195312 C 14.253906 -6.160156 14.421875 -7.195312 14.421875 -8.261719 C 14.421875 -9.324219 14.253906 -10.359375 13.957031 -11.324219 C 13.640625 -12.289062 13.191406 -13.171875 12.589844 -13.957031 Z M 7.710938 -3.296875 C 7.246094 -3.296875 6.792969 -3.429688 6.394531 -3.695312 C 5.980469 -3.964844 5.613281 -4.3125 5.3125 -4.761719 C 4.996094 -5.210938 4.746094 -5.746094 4.5625 -6.34375 C 4.378906 -6.945312 4.296875 -7.578125 4.296875 -8.261719 C 4.296875 -8.925781 4.378906 -9.574219 4.5625 -10.175781 C 4.746094 -10.773438 4.996094 -11.292969 5.3125 -11.757812 C 5.613281 -12.207031 5.980469 -12.574219 6.394531 -12.839844 C 6.792969 -13.105469 7.246094 -13.238281 7.710938 -13.238281 C 8.175781 -13.238281 8.609375 -13.105469 9.027344 -12.839844 C 9.425781 -12.574219 9.792969 -12.207031 10.09375 -11.757812 C 10.390625 -11.292969 10.640625 -10.773438 10.824219 -10.175781 C 11.007812 -9.574219 11.109375 -8.925781 11.109375 -8.261719 C 11.109375 -7.578125 11.007812 -6.945312 10.824219 -6.34375 C 10.640625 -5.746094 10.390625 -5.210938 10.09375 -4.761719 C 9.792969 -4.3125 9.425781 -3.964844 9.027344 -3.695312 C 8.609375 -3.429688 8.175781 -3.296875 7.710938 -3.296875 Z M 7.710938 -3.296875 "/></g></g></g><g fill="#ffc1b2" fill-opacity="0.502"><g transform="translate(143.875452, 221.63904)"><g><path d="M 12.125 -16.671875 C 11.839844 -16.402344 11.507812 -16.285156 11.140625 -16.285156 L 2.265625 -16.285156 C 2.148438 -16.285156 2.066406 -16.238281 2.03125 -16.136719 C 1.980469 -16.039062 1.980469 -15.953125 2.046875 -15.871094 L 2.097656 -15.820312 C 2.363281 -15.519531 2.496094 -15.171875 2.496094 -14.773438 L 2.496094 -1.25 C 2.496094 -1.050781 2.464844 -0.867188 2.398438 -0.683594 C 2.332031 -0.5 2.230469 -0.332031 2.097656 -0.199219 L 2.046875 -0.148438 C 1.980469 -0.0507812 1.980469 0.0351562 2.03125 0.132812 C 2.066406 0.234375 2.148438 0.265625 2.265625 0.265625 L 11.140625 0.265625 C 11.507812 0.265625 11.839844 0.398438 12.125 0.648438 C 12.207031 0.734375 12.308594 0.75 12.40625 0.699219 C 12.507812 0.667969 12.574219 0.582031 12.574219 0.449219 L 12.574219 -3.265625 C 12.574219 -3.363281 12.523438 -3.445312 12.421875 -3.496094 C 12.324219 -3.53125 12.222656 -3.515625 12.15625 -3.445312 C 11.855469 -3.164062 11.507812 -3.03125 11.109375 -3.03125 L 6.210938 -3.03125 C 6.09375 -3.03125 5.996094 -3.0625 5.910156 -3.148438 C 5.828125 -3.214844 5.796875 -3.3125 5.796875 -3.445312 L 5.796875 -5.945312 C 5.796875 -6.0625 5.828125 -6.160156 5.910156 -6.246094 C 5.996094 -6.3125 6.09375 -6.363281 6.210938 -6.363281 L 7.675781 -6.363281 C 8.078125 -6.363281 8.425781 -6.210938 8.726562 -5.945312 C 8.808594 -5.878906 8.894531 -5.878906 8.992188 -5.929688 C 9.09375 -5.980469 9.144531 -6.0625 9.144531 -6.160156 L 9.144531 -9.859375 C 9.144531 -9.957031 9.09375 -10.023438 8.992188 -10.074219 C 8.894531 -10.125 8.808594 -10.125 8.726562 -10.074219 C 8.425781 -9.792969 8.078125 -9.660156 7.675781 -9.660156 L 6.210938 -9.660156 C 6.09375 -9.660156 5.996094 -9.691406 5.910156 -9.777344 C 5.828125 -9.84375 5.796875 -9.941406 5.796875 -10.074219 L 5.796875 -12.574219 C 5.796875 -12.691406 5.828125 -12.789062 5.910156 -12.875 C 5.996094 -12.941406 6.09375 -12.988281 6.210938 -12.988281 L 11.109375 -12.988281 C 11.507812 -12.988281 11.855469 -12.839844 12.15625 -12.574219 C 12.222656 -12.488281 12.324219 -12.472656 12.421875 -12.523438 C 12.523438 -12.558594 12.574219 -12.640625 12.574219 -12.757812 L 12.574219 -16.488281 C 12.574219 -16.585938 12.507812 -16.671875 12.40625 -16.71875 C 12.308594 -16.753906 12.207031 -16.738281 12.125 -16.671875 Z M 12.125 -16.671875 "/></g></g></g><g fill="#ffc1b2" fill-opacity="0.502"><g transform="translate(158.443617, 221.63904)"><g><path d="M 12.824219 -13.605469 C 12.289062 -14.554688 11.640625 -15.289062 10.875 -15.789062 C 10.109375 -16.285156 9.242188 -16.554688 8.308594 -16.554688 L 2.25 -16.554688 C 2.132812 -16.554688 2.046875 -16.503906 2.015625 -16.402344 C 1.964844 -16.304688 1.980469 -16.203125 2.066406 -16.136719 C 2.363281 -15.804688 2.53125 -15.40625 2.53125 -14.953125 L 2.53125 -1.582031 C 2.53125 -1.132812 2.363281 -0.734375 2.066406 -0.398438 C 1.980469 -0.316406 1.964844 -0.234375 2.015625 -0.132812 C 2.046875 -0.0351562 2.132812 0 2.25 0 L 8.308594 0 C 9.242188 0 10.109375 -0.25 10.875 -0.75 C 11.640625 -1.25 12.289062 -1.964844 12.824219 -2.914062 C 13.207031 -3.628906 13.507812 -4.445312 13.722656 -5.363281 C 13.9375 -6.277344 14.054688 -7.246094 14.054688 -8.261719 C 14.054688 -9.257812 13.9375 -10.226562 13.722656 -11.140625 C 13.507812 -12.058594 13.207031 -12.875 12.824219 -13.605469 Z M 9.925781 -4.511719 C 9.757812 -4.214844 9.59375 -3.980469 9.425781 -3.8125 C 9.257812 -3.648438 9.09375 -3.515625 8.960938 -3.445312 C 8.808594 -3.363281 8.675781 -3.3125 8.558594 -3.3125 C 8.441406 -3.296875 8.359375 -3.296875 8.308594 -3.296875 L 6.445312 -3.296875 C 6.277344 -3.296875 6.128906 -3.347656 6.011719 -3.480469 C 5.878906 -3.597656 5.828125 -3.746094 5.828125 -3.914062 L 5.828125 -12.421875 C 5.828125 -12.640625 5.894531 -12.824219 6.0625 -12.988281 C 6.226562 -13.15625 6.429688 -13.238281 6.660156 -13.238281 L 8.308594 -13.238281 C 8.675781 -13.238281 9.027344 -13.089844 9.324219 -12.804688 C 9.625 -12.507812 9.890625 -12.125 10.109375 -11.65625 C 10.308594 -11.191406 10.476562 -10.65625 10.589844 -10.058594 C 10.691406 -9.460938 10.757812 -8.859375 10.757812 -8.261719 C 10.757812 -7.527344 10.675781 -6.828125 10.542969 -6.179688 C 10.390625 -5.527344 10.191406 -4.980469 9.925781 -4.511719 Z M 9.925781 -4.511719 "/></g></g></g><g fill="#ffc1b2" fill-opacity="0.502"><g transform="translate(173.827601, 221.63904)"><g><path d="M 14.273438 -16.535156 L 10.589844 -16.535156 C 10.476562 -16.535156 10.390625 -16.488281 10.359375 -16.402344 C 10.308594 -16.304688 10.308594 -16.21875 10.375 -16.136719 C 10.640625 -15.820312 10.792969 -15.472656 10.792969 -15.089844 L 10.792969 -5.378906 C 10.792969 -4.863281 10.65625 -4.464844 10.425781 -4.195312 C 10.191406 -3.914062 9.925781 -3.714844 9.625 -3.582031 C 9.324219 -3.445312 9.042969 -3.363281 8.777344 -3.332031 C 8.511719 -3.296875 8.34375 -3.296875 8.277344 -3.296875 C 8.210938 -3.296875 8.027344 -3.296875 7.761719 -3.332031 C 7.492188 -3.363281 7.210938 -3.445312 6.910156 -3.582031 C 6.613281 -3.714844 6.34375 -3.914062 6.113281 -4.195312 C 5.878906 -4.464844 5.761719 -4.863281 5.761719 -5.378906 L 5.761719 -15.089844 C 5.761719 -15.488281 5.894531 -15.835938 6.160156 -16.136719 C 6.210938 -16.21875 6.210938 -16.304688 6.179688 -16.402344 C 6.128906 -16.488281 6.046875 -16.535156 5.945312 -16.535156 L 2.265625 -16.535156 C 2.148438 -16.535156 2.066406 -16.488281 2.03125 -16.402344 C 1.980469 -16.304688 1.980469 -16.21875 2.046875 -16.136719 C 2.316406 -15.835938 2.449219 -15.488281 2.449219 -15.089844 L 2.449219 -5.378906 C 2.449219 -4.546875 2.613281 -3.78125 2.949219 -3.082031 C 3.28125 -2.382812 3.746094 -1.78125 4.378906 -1.28125 C 4.914062 -0.847656 5.511719 -0.53125 6.179688 -0.316406 C 6.84375 -0.0820312 7.542969 0.015625 8.277344 0.015625 C 9.007812 0.015625 9.691406 -0.0820312 10.359375 -0.316406 C 11.023438 -0.53125 11.625 -0.847656 12.15625 -1.28125 C 12.789062 -1.78125 13.257812 -2.382812 13.589844 -3.082031 C 13.921875 -3.78125 14.089844 -4.546875 14.089844 -5.378906 L 14.089844 -15.089844 C 14.089844 -15.453125 14.222656 -15.804688 14.488281 -16.136719 C 14.554688 -16.21875 14.554688 -16.304688 14.503906 -16.402344 C 14.457031 -16.488281 14.371094 -16.535156 14.273438 -16.535156 Z M 14.273438 -16.535156 "/></g></g></g><g fill="#ffc1b2" fill-opacity="0.502"><g transform="translate(190.377036, 221.63904)"><g><path d="M 14.253906 -0.464844 L 13.9375 -0.714844 C 13.707031 -0.867188 13.507812 -1.066406 13.339844 -1.332031 L 8.691406 -7.910156 C 8.59375 -8.011719 8.558594 -8.144531 8.558594 -8.277344 C 8.558594 -8.410156 8.59375 -8.527344 8.691406 -8.644531 L 13.339844 -15.238281 C 13.507812 -15.453125 13.707031 -15.671875 13.957031 -15.871094 L 14.253906 -16.085938 C 14.355469 -16.171875 14.386719 -16.285156 14.339844 -16.421875 C 14.273438 -16.503906 14.1875 -16.554688 14.105469 -16.554688 L 9.777344 -16.554688 C 9.660156 -16.554688 9.574219 -16.503906 9.542969 -16.402344 C 9.492188 -16.304688 9.492188 -16.21875 9.558594 -16.136719 L 9.574219 -16.121094 C 9.675781 -15.988281 9.691406 -15.855469 9.609375 -15.722656 L 6.3125 -11.023438 C 6.210938 -10.90625 6.113281 -10.875 5.980469 -10.90625 C 5.84375 -10.941406 5.796875 -11.042969 5.796875 -11.191406 L 5.796875 -15.203125 C 5.796875 -15.539062 5.910156 -15.855469 6.160156 -16.121094 C 6.226562 -16.203125 6.246094 -16.304688 6.210938 -16.402344 C 6.160156 -16.503906 6.078125 -16.554688 5.980469 -16.554688 L 2.25 -16.554688 C 2.132812 -16.554688 2.046875 -16.503906 2.015625 -16.402344 C 1.964844 -16.304688 1.980469 -16.21875 2.066406 -16.136719 C 2.347656 -15.820312 2.496094 -15.453125 2.496094 -15.019531 L 2.496094 -1.449219 C 2.496094 -1.066406 2.363281 -0.734375 2.113281 -0.464844 L 2.066406 -0.417969 C 2 -0.316406 2 -0.234375 2.046875 -0.132812 C 2.082031 -0.0351562 2.164062 0 2.28125 0 L 6.011719 0 C 6.113281 0 6.195312 -0.0507812 6.226562 -0.148438 C 6.261719 -0.25 6.261719 -0.332031 6.195312 -0.417969 C 5.929688 -0.699219 5.796875 -1.03125 5.796875 -1.398438 L 5.796875 -5.378906 C 5.796875 -5.511719 5.84375 -5.59375 5.980469 -5.644531 C 6.113281 -5.679688 6.210938 -5.644531 6.3125 -5.527344 L 9.609375 -0.847656 C 9.691406 -0.683594 9.675781 -0.550781 9.574219 -0.449219 L 9.558594 -0.417969 C 9.492188 -0.316406 9.492188 -0.234375 9.542969 -0.132812 C 9.574219 -0.0351562 9.660156 0 9.777344 0 L 14.105469 0 C 14.207031 0 14.273438 -0.0507812 14.339844 -0.148438 C 14.355469 -0.199219 14.355469 -0.25 14.355469 -0.316406 C 14.339844 -0.382812 14.304688 -0.433594 14.253906 -0.464844 Z M 14.253906 -0.464844 "/></g></g></g><g fill="#ffc1b2" fill-opacity="0.502"><g transform="translate(206.743331, 221.63904)"><g><path d="M 12.105469 -3.679688 L 11.90625 -3.515625 C 11.722656 -3.347656 11.523438 -3.28125 11.308594 -3.28125 L 6.144531 -3.28125 C 6.027344 -3.28125 5.929688 -3.3125 5.863281 -3.378906 C 5.777344 -3.445312 5.746094 -3.546875 5.746094 -3.679688 L 5.746094 -15.070312 C 5.746094 -15.453125 5.878906 -15.804688 6.144531 -16.105469 L 6.160156 -16.121094 C 6.210938 -16.203125 6.210938 -16.285156 6.179688 -16.386719 C 6.128906 -16.46875 6.046875 -16.519531 5.945312 -16.519531 L 2.265625 -16.519531 C 2.148438 -16.519531 2.066406 -16.46875 2.03125 -16.386719 C 1.980469 -16.285156 1.980469 -16.203125 2.046875 -16.121094 C 2.316406 -15.820312 2.449219 -15.472656 2.449219 -15.089844 L 2.449219 -0.367188 C 2.449219 -0.25 2.480469 -0.148438 2.566406 -0.0820312 C 2.632812 0 2.730469 0.0351562 2.847656 0.0351562 L 11.308594 0.0351562 C 11.523438 0.0351562 11.722656 0.117188 11.90625 0.265625 L 12.105469 0.433594 C 12.191406 0.5 12.273438 0.5 12.375 0.449219 C 12.457031 0.417969 12.507812 0.332031 12.507812 0.214844 L 12.507812 -3.464844 C 12.507812 -3.5625 12.457031 -3.648438 12.375 -3.695312 C 12.273438 -3.730469 12.191406 -3.730469 12.105469 -3.679688 Z M 12.105469 -3.679688 "/></g></g></g><g fill="#ffc1b2" fill-opacity="0.502"><g transform="translate(220.262592, 221.63904)"><g><path d="M 5.761719 -1.464844 L 5.761719 -15.089844 C 5.761719 -15.488281 5.894531 -15.835938 6.160156 -16.136719 C 6.210938 -16.21875 6.210938 -16.304688 6.179688 -16.402344 C 6.128906 -16.503906 6.046875 -16.554688 5.945312 -16.554688 L 2.265625 -16.554688 C 2.148438 -16.554688 2.066406 -16.503906 2.03125 -16.402344 C 1.980469 -16.304688 1.980469 -16.21875 2.046875 -16.136719 C 2.316406 -15.835938 2.464844 -15.488281 2.464844 -15.089844 L 2.464844 -1.464844 C 2.464844 -1.066406 2.316406 -0.714844 2.046875 -0.417969 C 1.980469 -0.316406 1.980469 -0.234375 2.03125 -0.132812 C 2.066406 -0.0351562 2.148438 0 2.265625 0 L 5.945312 0 C 6.046875 0 6.128906 -0.0351562 6.179688 -0.132812 C 6.210938 -0.234375 6.210938 -0.316406 6.160156 -0.417969 C 6.027344 -0.550781 5.929688 -0.714844 5.863281 -0.898438 C 5.796875 -1.082031 5.761719 -1.265625 5.761719 -1.464844 Z M 5.761719 -1.464844 "/></g></g></g><g fill="#ffc1b2" fill-opacity="0.502"><g transform="translate(228.487363, 221.63904)"><g><path d="M 12.589844 -13.957031 C 11.957031 -14.789062 11.207031 -15.421875 10.375 -15.871094 C 9.527344 -16.304688 8.644531 -16.535156 7.710938 -16.535156 C 6.777344 -16.535156 5.878906 -16.304688 5.03125 -15.871094 C 4.179688 -15.421875 3.445312 -14.789062 2.8125 -13.957031 C 2.214844 -13.171875 1.765625 -12.289062 1.464844 -11.324219 C 1.148438 -10.359375 1 -9.324219 1 -8.261719 C 1 -7.195312 1.148438 -6.160156 1.464844 -5.195312 C 1.765625 -4.214844 2.214844 -3.347656 2.8125 -2.582031 C 3.445312 -1.75 4.179688 -1.097656 5.03125 -0.667969 C 5.878906 -0.214844 6.777344 0 7.710938 0 C 8.644531 0 9.527344 -0.214844 10.375 -0.667969 C 11.207031 -1.097656 11.957031 -1.75 12.589844 -2.582031 C 13.191406 -3.347656 13.640625 -4.214844 13.957031 -5.195312 C 14.253906 -6.160156 14.421875 -7.195312 14.421875 -8.261719 C 14.421875 -9.324219 14.253906 -10.359375 13.957031 -11.324219 C 13.640625 -12.289062 13.191406 -13.171875 12.589844 -13.957031 Z M 7.710938 -3.296875 C 7.246094 -3.296875 6.792969 -3.429688 6.394531 -3.695312 C 5.980469 -3.964844 5.613281 -4.3125 5.3125 -4.761719 C 4.996094 -5.210938 4.746094 -5.746094 4.5625 -6.34375 C 4.378906 -6.945312 4.296875 -7.578125 4.296875 -8.261719 C 4.296875 -8.925781 4.378906 -9.574219 4.5625 -10.175781 C 4.746094 -10.773438 4.996094 -11.292969 5.3125 -11.757812 C 5.613281 -12.207031 5.980469 -12.574219 6.394531 -12.839844 C 6.792969 -13.105469 7.246094 -13.238281 7.710938 -13.238281 C 8.175781 -13.238281 8.609375 -13.105469 9.027344 -12.839844 C 9.425781 -12.574219 9.792969 -12.207031 10.09375 -11.757812 C 10.390625 -11.292969 10.640625 -10.773438 10.824219 -10.175781 C 11.007812 -9.574219 11.109375 -8.925781 11.109375 -8.261719 C 11.109375 -7.578125 11.007812 -6.945312 10.824219 -6.34375 C 10.640625 -5.746094 10.390625 -5.210938 10.09375 -4.761719 C 9.792969 -4.3125 9.425781 -3.964844 9.027344 -3.695312 C 8.609375 -3.429688 8.175781 -3.296875 7.710938 -3.296875 Z M 7.710938 -3.296875 "/></g></g></g><g fill="#000000" fill-opacity="1"><g transform="translate(144.316239, 221.826144)"><g><path d="M 12.125 -16.671875 C 11.839844 -16.402344 11.507812 -16.285156 11.140625 -16.285156 L 2.265625 -16.285156 C 2.148438 -16.285156 2.066406 -16.238281 2.03125 -16.136719 C 1.980469 -16.039062 1.980469 -15.953125 2.046875 -15.871094 L 2.097656 -15.820312 C 2.363281 -15.519531 2.496094 -15.171875 2.496094 -14.773438 L 2.496094 -1.25 C 2.496094 -1.050781 2.464844 -0.867188 2.398438 -0.683594 C 2.332031 -0.5 2.230469 -0.332031 2.097656 -0.199219 L 2.046875 -0.148438 C 1.980469 -0.0507812 1.980469 0.0351562 2.03125 0.132812 C 2.066406 0.234375 2.148438 0.265625 2.265625 0.265625 L 11.140625 0.265625 C 11.507812 0.265625 11.839844 0.398438 12.125 0.648438 C 12.207031 0.734375 12.308594 0.75 12.40625 0.699219 C 12.507812 0.667969 12.574219 0.582031 12.574219 0.449219 L 12.574219 -3.265625 C 12.574219 -3.363281 12.523438 -3.445312 12.421875 -3.496094 C 12.324219 -3.53125 12.222656 -3.515625 12.15625 -3.445312 C 11.855469 -3.164062 11.507812 -3.03125 11.109375 -3.03125 L 6.210938 -3.03125 C 6.09375 -3.03125 5.996094 -3.0625 5.910156 -3.148438 C 5.828125 -3.214844 5.796875 -3.3125 5.796875 -3.445312 L 5.796875 -5.945312 C 5.796875 -6.0625 5.828125 -6.160156 5.910156 -6.246094 C 5.996094 -6.3125 6.09375 -6.363281 6.210938 -6.363281 L 7.675781 -6.363281 C 8.078125 -6.363281 8.425781 -6.210938 8.726562 -5.945312 C 8.808594 -5.878906 8.894531 -5.878906 8.992188 -5.929688 C 9.09375 -5.980469 9.144531 -6.0625 9.144531 -6.160156 L 9.144531 -9.859375 C 9.144531 -9.957031 9.09375 -10.023438 8.992188 -10.074219 C 8.894531 -10.125 8.808594 -10.125 8.726562 -10.074219 C 8.425781 -9.792969 8.078125 -9.660156 7.675781 -9.660156 L 6.210938 -9.660156 C 6.09375 -9.660156 5.996094 -9.691406 5.910156 -9.777344 C 5.828125 -9.84375 5.796875 -9.941406 5.796875 -10.074219 L 5.796875 -12.574219 C 5.796875 -12.691406 5.828125 -12.789062 5.910156 -12.875 C 5.996094 -12.941406 6.09375 -12.988281 6.210938 -12.988281 L 11.109375 -12.988281 C 11.507812 -12.988281 11.855469 -12.839844 12.15625 -12.574219 C 12.222656 -12.488281 12.324219 -12.472656 12.421875 -12.523438 C 12.523438 -12.558594 12.574219 -12.640625 12.574219 -12.757812 L 12.574219 -16.488281 C 12.574219 -16.585938 12.507812 -16.671875 12.40625 -16.71875 C 12.308594 -16.753906 12.207031 -16.738281 12.125 -16.671875 Z M 12.125 -16.671875 "/></g></g></g><g fill="#000000" fill-opacity="1"><g transform="translate(158.884404, 221.826144)"><g><path d="M 12.824219 -13.605469 C 12.289062 -14.554688 11.640625 -15.289062 10.875 -15.789062 C 10.109375 -16.285156 9.242188 -16.554688 8.308594 -16.554688 L 2.25 -16.554688 C 2.132812 -16.554688 2.046875 -16.503906 2.015625 -16.402344 C 1.964844 -16.304688 1.980469 -16.203125 2.066406 -16.136719 C 2.363281 -15.804688 2.53125 -15.40625 2.53125 -14.953125 L 2.53125 -1.582031 C 2.53125 -1.132812 2.363281 -0.734375 2.066406 -0.398438 C 1.980469 -0.316406 1.964844 -0.234375 2.015625 -0.132812 C 2.046875 -0.0351562 2.132812 0 2.25 0 L 8.308594 0 C 9.242188 0 10.109375 -0.25 10.875 -0.75 C 11.640625 -1.25 12.289062 -1.964844 12.824219 -2.914062 C 13.207031 -3.628906 13.507812 -4.445312 13.722656 -5.363281 C 13.9375 -6.277344 14.054688 -7.246094 14.054688 -8.261719 C 14.054688 -9.257812 13.9375 -10.226562 13.722656 -11.140625 C 13.507812 -12.058594 13.207031 -12.875 12.824219 -13.605469 Z M 9.925781 -4.511719 C 9.757812 -4.214844 9.59375 -3.980469 9.425781 -3.8125 C 9.257812 -3.648438 9.09375 -3.515625 8.960938 -3.445312 C 8.808594 -3.363281 8.675781 -3.3125 8.558594 -3.3125 C 8.441406 -3.296875 8.359375 -3.296875 8.308594 -3.296875 L 6.445312 -3.296875 C 6.277344 -3.296875 6.128906 -3.347656 6.011719 -3.480469 C 5.878906 -3.597656 5.828125 -3.746094 5.828125 -3.914062 L 5.828125 -12.421875 C 5.828125 -12.640625 5.894531 -12.824219 6.0625 -12.988281 C 6.226562 -13.15625 6.429688 -13.238281 6.660156 -13.238281 L 8.308594 -13.238281 C 8.675781 -13.238281 9.027344 -13.089844 9.324219 -12.804688 C 9.625 -12.507812 9.890625 -12.125 10.109375 -11.65625 C 10.308594 -11.191406 10.476562 -10.65625 10.589844 -10.058594 C 10.691406 -9.460938 10.757812 -8.859375 10.757812 -8.261719 C 10.757812 -7.527344 10.675781 -6.828125 10.542969 -6.179688 C 10.390625 -5.527344 10.191406 -4.980469 9.925781 -4.511719 Z M 9.925781 -4.511719 "/></g></g></g><g fill="#000000" fill-opacity="1"><g transform="translate(174.268387, 221.826144)"><g><path d="M 14.273438 -16.535156 L 10.589844 -16.535156 C 10.476562 -16.535156 10.390625 -16.488281 10.359375 -16.402344 C 10.308594 -16.304688 10.308594 -16.21875 10.375 -16.136719 C 10.640625 -15.820312 10.792969 -15.472656 10.792969 -15.089844 L 10.792969 -5.378906 C 10.792969 -4.863281 10.65625 -4.464844 10.425781 -4.195312 C 10.191406 -3.914062 9.925781 -3.714844 9.625 -3.582031 C 9.324219 -3.445312 9.042969 -3.363281 8.777344 -3.332031 C 8.511719 -3.296875 8.34375 -3.296875 8.277344 -3.296875 C 8.210938 -3.296875 8.027344 -3.296875 7.761719 -3.332031 C 7.492188 -3.363281 7.210938 -3.445312 6.910156 -3.582031 C 6.613281 -3.714844 6.34375 -3.914062 6.113281 -4.195312 C 5.878906 -4.464844 5.761719 -4.863281 5.761719 -5.378906 L 5.761719 -15.089844 C 5.761719 -15.488281 5.894531 -15.835938 6.160156 -16.136719 C 6.210938 -16.21875 6.210938 -16.304688 6.179688 -16.402344 C 6.128906 -16.488281 6.046875 -16.535156 5.945312 -16.535156 L 2.265625 -16.535156 C 2.148438 -16.535156 2.066406 -16.488281 2.03125 -16.402344 C 1.980469 -16.304688 1.980469 -16.21875 2.046875 -16.136719 C 2.316406 -15.835938 2.449219 -15.488281 2.449219 -15.089844 L 2.449219 -5.378906 C 2.449219 -4.546875 2.613281 -3.78125 2.949219 -3.082031 C 3.28125 -2.382812 3.746094 -1.78125 4.378906 -1.28125 C 4.914062 -0.847656 5.511719 -0.53125 6.179688 -0.316406 C 6.84375 -0.0820312 7.542969 0.015625 8.277344 0.015625 C 9.007812 0.015625 9.691406 -0.0820312 10.359375 -0.316406 C 11.023438 -0.53125 11.625 -0.847656 12.15625 -1.28125 C 12.789062 -1.78125 13.257812 -2.382812 13.589844 -3.082031 C 13.921875 -3.78125 14.089844 -4.546875 14.089844 -5.378906 L 14.089844 -15.089844 C 14.089844 -15.453125 14.222656 -15.804688 14.488281 -16.136719 C 14.554688 -16.21875 14.554688 -16.304688 14.503906 -16.402344 C 14.457031 -16.488281 14.371094 -16.535156 14.273438 -16.535156 Z M 14.273438 -16.535156 "/></g></g></g><g fill="#000000" fill-opacity="1"><g transform="translate(190.817823, 221.826144)"><g><path d="M 14.253906 -0.464844 L 13.9375 -0.714844 C 13.707031 -0.867188 13.507812 -1.066406 13.339844 -1.332031 L 8.691406 -7.910156 C 8.59375 -8.011719 8.558594 -8.144531 8.558594 -8.277344 C 8.558594 -8.410156 8.59375 -8.527344 8.691406 -8.644531 L 13.339844 -15.238281 C 13.507812 -15.453125 13.707031 -15.671875 13.957031 -15.871094 L 14.253906 -16.085938 C 14.355469 -16.171875 14.386719 -16.285156 14.339844 -16.421875 C 14.273438 -16.503906 14.1875 -16.554688 14.105469 -16.554688 L 9.777344 -16.554688 C 9.660156 -16.554688 9.574219 -16.503906 9.542969 -16.402344 C 9.492188 -16.304688 9.492188 -16.21875 9.558594 -16.136719 L 9.574219 -16.121094 C 9.675781 -15.988281 9.691406 -15.855469 9.609375 -15.722656 L 6.3125 -11.023438 C 6.210938 -10.90625 6.113281 -10.875 5.980469 -10.90625 C 5.84375 -10.941406 5.796875 -11.042969 5.796875 -11.191406 L 5.796875 -15.203125 C 5.796875 -15.539062 5.910156 -15.855469 6.160156 -16.121094 C 6.226562 -16.203125 6.246094 -16.304688 6.210938 -16.402344 C 6.160156 -16.503906 6.078125 -16.554688 5.980469 -16.554688 L 2.25 -16.554688 C 2.132812 -16.554688 2.046875 -16.503906 2.015625 -16.402344 C 1.964844 -16.304688 1.980469 -16.21875 2.066406 -16.136719 C 2.347656 -15.820312 2.496094 -15.453125 2.496094 -15.019531 L 2.496094 -1.449219 C 2.496094 -1.066406 2.363281 -0.734375 2.113281 -0.464844 L 2.066406 -0.417969 C 2 -0.316406 2 -0.234375 2.046875 -0.132812 C 2.082031 -0.0351562 2.164062 0 2.28125 0 L 6.011719 0 C 6.113281 0 6.195312 -0.0507812 6.226562 -0.148438 C 6.261719 -0.25 6.261719 -0.332031 6.195312 -0.417969 C 5.929688 -0.699219 5.796875 -1.03125 5.796875 -1.398438 L 5.796875 -5.378906 C 5.796875 -5.511719 5.84375 -5.59375 5.980469 -5.644531 C 6.113281 -5.679688 6.210938 -5.644531 6.3125 -5.527344 L 9.609375 -0.847656 C 9.691406 -0.683594 9.675781 -0.550781 9.574219 -0.449219 L 9.558594 -0.417969 C 9.492188 -0.316406 9.492188 -0.234375 9.542969 -0.132812 C 9.574219 -0.0351562 9.660156 0 9.777344 0 L 14.105469 0 C 14.207031 0 14.273438 -0.0507812 14.339844 -0.148438 C 14.355469 -0.199219 14.355469 -0.25 14.355469 -0.316406 C 14.339844 -0.382812 14.304688 -0.433594 14.253906 -0.464844 Z M 14.253906 -0.464844 "/></g></g></g><g fill="#000000" fill-opacity="1"><g transform="translate(207.184118, 221.826144)"><g><path d="M 12.105469 -3.679688 L 11.90625 -3.515625 C 11.722656 -3.347656 11.523438 -3.28125 11.308594 -3.28125 L 6.144531 -3.28125 C 6.027344 -3.28125 5.929688 -3.3125 5.863281 -3.378906 C 5.777344 -3.445312 5.746094 -3.546875 5.746094 -3.679688 L 5.746094 -15.070312 C 5.746094 -15.453125 5.878906 -15.804688 6.144531 -16.105469 L 6.160156 -16.121094 C 6.210938 -16.203125 6.210938 -16.285156 6.179688 -16.386719 C 6.128906 -16.46875 6.046875 -16.519531 5.945312 -16.519531 L 2.265625 -16.519531 C 2.148438 -16.519531 2.066406 -16.46875 2.03125 -16.386719 C 1.980469 -16.285156 1.980469 -16.203125 2.046875 -16.121094 C 2.316406 -15.820312 2.449219 -15.472656 2.449219 -15.089844 L 2.449219 -0.367188 C 2.449219 -0.25 2.480469 -0.148438 2.566406 -0.0820312 C 2.632812 0 2.730469 0.0351562 2.847656 0.0351562 L 11.308594 0.0351562 C 11.523438 0.0351562 11.722656 0.117188 11.90625 0.265625 L 12.105469 0.433594 C 12.191406 0.5 12.273438 0.5 12.375 0.449219 C 12.457031 0.417969 12.507812 0.332031 12.507812 0.214844 L 12.507812 -3.464844 C 12.507812 -3.5625 12.457031 -3.648438 12.375 -3.695312 C 12.273438 -3.730469 12.191406 -3.730469 12.105469 -3.679688 Z M 12.105469 -3.679688 "/></g></g></g><g fill="#000000" fill-opacity="1"><g transform="translate(220.703379, 221.826144)"><g><path d="M 5.761719 -1.464844 L 5.761719 -15.089844 C 5.761719 -15.488281 5.894531 -15.835938 6.160156 -16.136719 C 6.210938 -16.21875 6.210938 -16.304688 6.179688 -16.402344 C 6.128906 -16.503906 6.046875 -16.554688 5.945312 -16.554688 L 2.265625 -16.554688 C 2.148438 -16.554688 2.066406 -16.503906 2.03125 -16.402344 C 1.980469 -16.304688 1.980469 -16.21875 2.046875 -16.136719 C 2.316406 -15.835938 2.464844 -15.488281 2.464844 -15.089844 L 2.464844 -1.464844 C 2.464844 -1.066406 2.316406 -0.714844 2.046875 -0.417969 C 1.980469 -0.316406 1.980469 -0.234375 2.03125 -0.132812 C 2.066406 -0.0351562 2.148438 0 2.265625 0 L 5.945312 0 C 6.046875 0 6.128906 -0.0351562 6.179688 -0.132812 C 6.210938 -0.234375 6.210938 -0.316406 6.160156 -0.417969 C 6.027344 -0.550781 5.929688 -0.714844 5.863281 -0.898438 C 5.796875 -1.082031 5.761719 -1.265625 5.761719 -1.464844 Z M 5.761719 -1.464844 "/></g></g></g><g fill="#000000" fill-opacity="1"><g transform="translate(228.928149, 221.826144)"><g><path d="M 12.589844 -13.957031 C 11.957031 -14.789062 11.207031 -15.421875 10.375 -15.871094 C 9.527344 -16.304688 8.644531 -16.535156 7.710938 -16.535156 C 6.777344 -16.535156 5.878906 -16.304688 5.03125 -15.871094 C 4.179688 -15.421875 3.445312 -14.789062 2.8125 -13.957031 C 2.214844 -13.171875 1.765625 -12.289062 1.464844 -11.324219 C 1.148438 -10.359375 1 -9.324219 1 -8.261719 C 1 -7.195312 1.148438 -6.160156 1.464844 -5.195312 C 1.765625 -4.214844 2.214844 -3.347656 2.8125 -2.582031 C 3.445312 -1.75 4.179688 -1.097656 5.03125 -0.667969 C 5.878906 -0.214844 6.777344 0 7.710938 0 C 8.644531 0 9.527344 -0.214844 10.375 -0.667969 C 11.207031 -1.097656 11.957031 -1.75 12.589844 -2.582031 C 13.191406 -3.347656 13.640625 -4.214844 13.957031 -5.195312 C 14.253906 -6.160156 14.421875 -7.195312 14.421875 -8.261719 C 14.421875 -9.324219 14.253906 -10.359375 13.957031 -11.324219 C 13.640625 -12.289062 13.191406 -13.171875 12.589844 -13.957031 Z M 7.710938 -3.296875 C 7.246094 -3.296875 6.792969 -3.429688 6.394531 -3.695312 C 5.980469 -3.964844 5.613281 -4.3125 5.3125 -4.761719 C 4.996094 -5.210938 4.746094 -5.746094 4.5625 -6.34375 C 4.378906 -6.945312 4.296875 -7.578125 4.296875 -8.261719 C 4.296875 -8.925781 4.378906 -9.574219 4.5625 -10.175781 C 4.746094 -10.773438 4.996094 -11.292969 5.3125 -11.757812 C 5.613281 -12.207031 5.980469 -12.574219 6.394531 -12.839844 C 6.792969 -13.105469 7.246094 -13.238281 7.710938 -13.238281 C 8.175781 -13.238281 8.609375 -13.105469 9.027344 -12.839844 C 9.425781 -12.574219 9.792969 -12.207031 10.09375 -11.757812 C 10.390625 -11.292969 10.640625 -10.773438 10.824219 -10.175781 C 11.007812 -9.574219 11.109375 -8.925781 11.109375 -8.261719 C 11.109375 -7.578125 11.007812 -6.945312 10.824219 -6.34375 C 10.640625 -5.746094 10.390625 -5.210938 10.09375 -4.761719 C 9.792969 -4.3125 9.425781 -3.964844 9.027344 -3.695312 C 8.609375 -3.429688 8.175781 -3.296875 7.710938 -3.296875 Z M 7.710938 -3.296875 "/></g></g></g></svg>