<svg xmlns="http://www.w3.org/2000/svg" xmlns:xlink="http://www.w3.org/1999/xlink" width="500" zoomAndPan="magnify" viewBox="0 0 375 374.999991" height="500" preserveAspectRatio="xMidYMid meet" version="1.0"><defs><clipPath id="1d344c7447"><path d="M 124.773438 112.5 L 250 112.5 L 250 262.5 L 124.773438 262.5 Z M 124.773438 112.5 " clip-rule="nonzero"/></clipPath></defs><g clip-path="url(#1d344c7447)"><path fill="#000000" d="M 232.636719 199.304688 C 232.292969 199.304688 232.292969 199.304688 232.636719 199.304688 L 232.292969 196.179688 C 232.292969 194.445312 230.90625 193.054688 229.171875 192.707031 C 228.132812 192.707031 227.089844 192.359375 226.050781 192.359375 C 226.050781 192.359375 225.703125 192.015625 225.703125 192.015625 C 219.117188 186.109375 211.839844 181.945312 204.210938 179.515625 C 215.304688 173.609375 222.929688 161.804688 222.929688 148.265625 C 222.929688 128.472656 206.984375 112.5 187.222656 112.5 C 167.464844 112.5 151.515625 128.472656 151.515625 148.265625 C 151.515625 161.804688 159.144531 173.609375 170.238281 179.515625 C 162.609375 181.945312 155.332031 186.109375 148.742188 191.667969 C 148.742188 191.667969 148.398438 192.015625 148.398438 192.359375 C 147.355469 192.359375 146.316406 192.359375 145.277344 192.707031 C 143.542969 193.054688 142.15625 194.445312 142.15625 196.179688 L 142.15625 198.957031 C 141.808594 199.304688 141.464844 199.304688 141.464844 199.652344 C 131.0625 213.195312 124.824219 231.597656 124.824219 248.957031 C 124.824219 251.042969 126.210938 252.429688 128.289062 252.429688 L 142.503906 252.429688 C 142.503906 253.125 142.851562 253.820312 143.542969 254.167969 C 144.238281 254.859375 145.277344 255.207031 146.316406 255.207031 C 170.929688 252.777344 185.492188 261.804688 185.492188 262.152344 C 185.492188 262.152344 185.835938 262.152344 185.835938 262.5 C 185.835938 262.5 186.183594 262.5 186.183594 262.5 C 186.53125 262.5 186.53125 262.5 186.878906 262.5 C 186.878906 262.5 187.222656 262.5 187.222656 262.5 C 187.570312 262.5 187.917969 262.5 188.265625 262.5 C 188.265625 262.5 188.265625 262.5 188.609375 262.5 C 188.957031 262.5 188.957031 262.5 189.304688 262.152344 C 189.304688 262.152344 203.863281 252.777344 228.476562 255.207031 C 229.519531 255.207031 230.558594 254.859375 231.25 254.167969 C 231.597656 253.820312 231.945312 253.125 232.292969 252.429688 L 246.503906 252.429688 C 248.585938 252.429688 249.972656 251.042969 249.972656 248.957031 C 249.972656 230.207031 243.730469 212.5 232.636719 199.304688 Z M 158.449219 148.265625 C 158.449219 132.292969 171.277344 119.445312 187.222656 119.445312 C 203.171875 119.445312 216 132.292969 216 148.265625 C 216 164.234375 203.171875 177.082031 187.222656 177.082031 C 171.277344 177.082031 158.449219 164.234375 158.449219 148.265625 Z M 214.613281 192.359375 C 200.398438 193.402344 191.039062 197.570312 187.222656 199.652344 C 183.410156 197.570312 174.050781 193.402344 159.835938 192.359375 C 168.15625 186.804688 177.519531 184.027344 187.222656 184.027344 C 196.929688 184.027344 206.292969 186.804688 214.613281 192.359375 Z M 142.15625 211.109375 L 142.15625 245.484375 L 131.757812 245.484375 C 132.105469 233.679688 135.917969 221.179688 142.15625 211.109375 Z M 225.359375 247.917969 C 205.25 246.527344 192.078125 252.429688 187.222656 255.207031 C 182.371094 252.777344 169.199219 246.875 149.089844 247.917969 L 149.089844 199.304688 C 171.625 197.917969 185.144531 206.25 185.492188 206.25 C 185.835938 206.25 186.183594 206.597656 186.183594 206.597656 C 186.183594 206.597656 186.53125 206.597656 186.53125 206.597656 C 186.878906 206.597656 187.222656 206.597656 187.570312 206.597656 C 187.570312 206.597656 187.917969 206.597656 187.917969 206.597656 C 188.265625 206.597656 188.609375 206.25 188.957031 206.25 C 188.957031 206.25 188.957031 206.25 189.304688 206.25 C 189.652344 205.902344 202.824219 197.570312 225.359375 199.304688 Z M 232.292969 245.484375 L 232.292969 211.109375 C 238.53125 221.179688 242.34375 232.984375 242.691406 245.484375 Z M 232.292969 245.484375 " fill-opacity="1" fill-rule="nonzero"/></g></svg>