<svg xmlns="http://www.w3.org/2000/svg" xmlns:xlink="http://www.w3.org/1999/xlink" width="500" zoomAndPan="magnify" viewBox="0 0 375 374.999991" height="500" preserveAspectRatio="xMidYMid meet" version="1.0"><defs><clipPath id="ca7274cdb5"><path d="M 169 221 L 262.5 221 L 262.5 262.5 L 169 262.5 Z M 169 221 " clip-rule="nonzero"/></clipPath><clipPath id="0618c50187"><path d="M 112.5 184 L 159 184 L 159 242 L 112.5 242 Z M 112.5 184 " clip-rule="nonzero"/></clipPath><clipPath id="5e4f660431"><path d="M 133 112.5 L 262.5 112.5 L 262.5 191 L 133 191 Z M 133 112.5 " clip-rule="nonzero"/></clipPath><clipPath id="7a3b3661c9"><path d="M 112.5 133 L 159 133 L 159 180 L 112.5 180 Z M 112.5 133 " clip-rule="nonzero"/></clipPath></defs><path fill="#000000" d="M 213.328125 130.300781 L 249.546875 130.300781 C 250.960938 130.300781 252.105469 129.152344 252.105469 127.738281 C 252.105469 126.324219 250.960938 125.175781 249.546875 125.175781 L 213.328125 125.175781 C 211.914062 125.175781 210.765625 126.324219 210.765625 127.738281 C 210.765625 129.152344 211.914062 130.300781 213.328125 130.300781 Z M 213.328125 130.300781 " fill-opacity="1" fill-rule="evenodd"/><path fill="#000000" d="M 213.328125 141.433594 L 249.546875 141.433594 C 250.960938 141.433594 252.105469 140.289062 252.105469 138.871094 C 252.105469 137.457031 250.960938 136.308594 249.546875 136.308594 L 213.328125 136.308594 C 211.914062 136.308594 210.765625 137.457031 210.765625 138.871094 C 210.765625 140.289062 211.914062 141.433594 213.328125 141.433594 Z M 213.328125 141.433594 " fill-opacity="1" fill-rule="evenodd"/><path fill="#000000" d="M 213.328125 152.570312 L 249.546875 152.570312 C 250.960938 152.570312 252.105469 151.421875 252.105469 150.007812 C 252.105469 148.59375 250.960938 147.445312 249.546875 147.445312 L 213.328125 147.445312 C 211.914062 147.445312 210.765625 148.59375 210.765625 150.007812 C 210.765625 151.421875 211.914062 152.570312 213.328125 152.570312 Z M 213.328125 152.570312 " fill-opacity="1" fill-rule="evenodd"/><path fill="#000000" d="M 213.328125 163.707031 L 249.546875 163.707031 C 250.960938 163.707031 252.105469 162.558594 252.105469 161.144531 C 252.105469 159.730469 250.960938 158.582031 249.546875 158.582031 L 213.328125 158.582031 C 211.914062 158.582031 210.765625 159.730469 210.765625 161.144531 C 210.765625 162.558594 211.914062 163.707031 213.328125 163.707031 Z M 213.328125 163.707031 " fill-opacity="1" fill-rule="evenodd"/><g clip-path="url(#ca7274cdb5)"><path fill="#000000" d="M 262.457031 223.675781 C 262.457031 222.261719 261.308594 221.113281 259.890625 221.113281 L 171.9375 221.113281 C 170.523438 221.113281 169.375 222.261719 169.375 223.675781 L 169.375 259.890625 C 169.375 261.308594 170.523438 262.457031 171.9375 262.457031 L 259.890625 262.457031 C 261.308594 262.457031 262.457031 261.308594 262.457031 259.890625 Z M 174.5 226.238281 L 174.5 257.328125 L 257.328125 257.328125 L 257.328125 226.238281 Z M 174.5 226.238281 " fill-opacity="1" fill-rule="evenodd"/></g><path fill="#000000" d="M 205.542969 205.566406 C 205.542969 204.152344 204.394531 203.003906 202.980469 203.003906 L 182.285156 203.003906 C 180.871094 203.003906 179.722656 204.152344 179.722656 205.566406 L 179.722656 223.675781 C 179.722656 225.089844 180.871094 226.238281 182.285156 226.238281 L 202.980469 226.238281 C 204.394531 226.238281 205.542969 225.089844 205.542969 223.675781 Z M 184.847656 208.128906 L 184.847656 221.113281 L 200.417969 221.113281 L 200.417969 208.128906 Z M 184.847656 208.128906 " fill-opacity="1" fill-rule="evenodd"/><path fill="#000000" d="M 250.050781 205.566406 C 250.050781 204.152344 248.90625 203.003906 247.488281 203.003906 L 226.792969 203.003906 C 225.378906 203.003906 224.230469 204.152344 224.230469 205.566406 L 224.230469 223.675781 C 224.230469 225.089844 225.378906 226.238281 226.792969 226.238281 L 247.488281 226.238281 C 248.90625 226.238281 250.050781 225.089844 250.050781 223.675781 Z M 229.355469 208.128906 L 229.355469 221.113281 L 244.925781 221.113281 L 244.925781 208.128906 Z M 229.355469 208.128906 " fill-opacity="1" fill-rule="evenodd"/><g clip-path="url(#0618c50187)"><path fill="#000000" d="M 158.976562 187.460938 C 158.976562 186.042969 157.832031 184.894531 156.414062 184.894531 L 133.691406 184.894531 C 121.96875 184.894531 112.460938 194.402344 112.460938 206.128906 C 112.460938 220.949219 112.460938 239.195312 112.460938 239.195312 C 112.460938 240.613281 113.609375 241.757812 115.023438 241.757812 L 156.414062 241.757812 C 157.832031 241.757812 158.976562 240.613281 158.976562 239.195312 Z M 153.851562 190.019531 L 133.691406 190.019531 C 124.796875 190.019531 117.585938 197.230469 117.585938 206.128906 L 117.585938 236.636719 L 153.851562 236.636719 Z M 153.851562 190.019531 " fill-opacity="1" fill-rule="evenodd"/></g><g clip-path="url(#5e4f660431)"><path fill="#000000" d="M 138.28125 117.585938 L 138.28125 135.71875 C 138.28125 137.132812 137.132812 138.28125 135.71875 138.28125 C 134.304688 138.28125 133.15625 137.132812 133.15625 135.71875 L 133.15625 115.023438 C 133.15625 113.609375 134.304688 112.460938 135.71875 112.460938 L 259.890625 112.460938 C 261.308594 112.460938 262.457031 113.609375 262.457031 115.023438 L 262.457031 187.460938 C 262.457031 188.875 261.308594 190.019531 259.890625 190.019531 L 187.460938 190.019531 C 186.042969 190.019531 184.894531 188.875 184.894531 187.460938 C 184.894531 186.042969 186.042969 184.894531 187.460938 184.894531 L 257.328125 184.894531 L 257.328125 117.585938 Z M 138.28125 117.585938 " fill-opacity="1" fill-rule="evenodd"/></g><g clip-path="url(#7a3b3661c9)"><path fill="#000000" d="M 135.71875 133.15625 C 122.882812 133.15625 112.460938 143.578125 112.460938 156.414062 C 112.460938 169.25 122.882812 179.671875 135.71875 179.671875 C 148.558594 179.671875 158.976562 169.25 158.976562 156.414062 C 158.976562 143.578125 148.558594 133.15625 135.71875 133.15625 Z M 135.71875 138.28125 C 145.726562 138.28125 153.851562 146.40625 153.851562 156.414062 C 153.851562 166.421875 145.726562 174.546875 135.71875 174.546875 C 125.710938 174.546875 117.585938 166.421875 117.585938 156.414062 C 117.585938 146.40625 125.710938 138.28125 135.71875 138.28125 Z M 135.71875 138.28125 " fill-opacity="1" fill-rule="evenodd"/></g><path fill="#000000" d="M 158.226562 189.269531 L 199.617188 147.878906 C 200.617188 146.878906 200.617188 145.253906 199.617188 144.253906 C 198.617188 143.257812 196.996094 143.257812 195.996094 144.253906 L 154.601562 185.644531 C 153.601562 186.648438 153.601562 188.269531 154.601562 189.269531 C 155.605469 190.269531 157.226562 190.269531 158.226562 189.269531 Z M 158.226562 189.269531 " fill-opacity="1" fill-rule="evenodd"/></svg>